{
.appVersion = "3219";
.formatVersion = 3;
DisplayStrings = (
g,
i,
"CA.;TB",
u,
"PAID
paid",
pax,
r,
D,
d,
n,
"ABCDEFHIJKLMNOP
QRSTUVWXYZ
abcdefghijklmnop
qrstuvwxyz",
Z,
F,
".",
".,",
";",
"-",
E,
O
);
date = "2023-10-16 11:25:55 +0000";
familyName = VER;
fontMaster = (
{
iconName = Bold;
id = m01;
metricValues = (
{
over = 16;
pos = 800;
},
{
over = 16;
pos = 700;
},
{
over = 16;
pos = 500;
},
{
over = -16;
},
{
over = -16;
pos = -200;
},
{
}
);
name = Bold;
}
);
glyphs = (
{
glyphname = A;
lastChange = "2023-11-02 08:43:32 +0000";
layers = (
{
layerId = m01;
shapes = (
{
closed = 0;
nodes = (
(140,94,l,{
"Letterink-NibData" = {
AngleInDegrees = -4.12291;
MainAxisWidth = 79;
MinorAxisWidth = 14.00234;
ValidForParentMainAxisWidth = 30;
ValidForParentMinorAxisWidth = 15;
};
}),
(171,264,o),
(198,507,o),
(214,590,cs,{
"Letterink-NibData" = {
AngleInDegrees = 1;
MainAxisWidth = 96;
MinorAxisWidth = 10;
ValidForParentMainAxisWidth = 30;
ValidForParentMinorAxisWidth = 15;
};
})
);
},
{
closed = 0;
nodes = (
(59,84,l,{
"Letterink-NibData" = {
AngleInDegrees = 25;
MainAxisWidth = 150;
MinorAxisWidth = 15;
ValidForParentMainAxisWidth = 30;
ValidForParentMinorAxisWidth = 15;
};
}),
(98,120,o),
(180,124,o),
(211,84,c,{
"Letterink-NibData" = {
AngleInDegrees = 25;
MainAxisWidth = 150;
MinorAxisWidth = 15;
ValidForParentMainAxisWidth = 30;
ValidForParentMinorAxisWidth = 15;
};
})
);
},
{
closed = 0;
nodes = (
(70,321,l,{
"Letterink-NibData" = {
AngleInDegrees = 25;
MainAxisWidth = 150;
MinorAxisWidth = 2;
ValidForParentMainAxisWidth = 30;
ValidForParentMinorAxisWidth = 15;
};
}),
(168,321,l,{
"Letterink-NibData" = {
AngleInDegrees = 25;
MainAxisWidth = 150;
MinorAxisWidth = 2;
ValidForParentMainAxisWidth = 30;
ValidForParentMinorAxisWidth = 15;
};
}),
(184,311,l,{
"Letterink-NibData" = {
AngleInDegrees = 22.0156;
MainAxisWidth = 135;
MinorAxisWidth = -1.86157;
ValidForParentMainAxisWidth = 30;
ValidForParentMinorAxisWidth = 15;
};
}),
(349,312,l,{
"Letterink-NibData" = {
AngleInDegrees = 25;
MainAxisWidth = 135;
ValidForParentMainAxisWidth = 30;
};
}),
(376,322,l,{
"Letterink-NibData" = {
AngleInDegrees = 25;
MainAxisWidth = 150;
MinorAxisWidth = 2;
ValidForParentMainAxisWidth = 30;
ValidForParentMinorAxisWidth = 15;
};
}),
(483,322,l,{
"Letterink-NibData" = {
AngleInDegrees = 25;
MainAxisWidth = 150;
MinorAxisWidth = 2;
ValidForParentMainAxisWidth = 30;
ValidForParentMinorAxisWidth = 15;
};
})
);
},
{
closed = 0;
nodes = (
(304,660,l,{
"Letterink-NibData" = {
AngleInDegrees = -9;
MainAxisWidth = 146;
MinorAxisWidth = 19;
ValidForParentMainAxisWidth = 30;
ValidForParentMinorAxisWidth = 15;
};
}),
(319,632,o),
(354,272,o),
(378,122,cs,{
"Letterink-NibData" = {
MainAxisWidth = 150;
MinorAxisWidth = 15;
ValidForParentMainAxisWidth = 30;
ValidForParentMinorAxisWidth = 15;
};
}),
(387,68,o),
(420,56,o),
(456,67,c,{
"Letterink-NibData" = {
MainAxisWidth = 150;
MinorAxisWidth = 15;
ValidForParentMainAxisWidth = 30;
ValidForParentMinorAxisWidth = 15;
};
})
);
}
);
width = 527;
}
);
unicode = 65;
},
{
glyphname = B;
lastChange = "2023-11-01 22:45:13 +0000";
layers = (
{
layerId = m01;
shapes = (
{
closed = 0;
nodes = (
(345,74,l,{
"Letterink-NibData" = {
AngleInDegrees = 5;
MainAxisWidth = 160;
MinorAxisWidth = 15;
ValidForParentMainAxisWidth = 30;
ValidForParentMinorAxisWidth = 15;
};
}),
(136,113,o),
(52,100,o),
(29,84,c,{
"Letterink-NibData" = {
AngleInDegrees = 25;
MainAxisWidth = 150;
MinorAxisWidth = 15;
ValidForParentMainAxisWidth = 30;
ValidForParentMinorAxisWidth = 15;
};
})
);
},
{
closed = 0;
nodes = (
(133,560,l,{
"Letterink-NibData" = {
MainAxisWidth = 75;
MinorAxisWidth = 28;
ValidForParentMainAxisWidth = 30;
ValidForParentMinorAxisWidth = 15;
};
}),
(117,468,o),
(85,139,o),
(85,139,c,{
"Letterink-NibData" = {
MainAxisWidth = 71;
MinorAxisWidth = 25;
ValidForParentMainAxisWidth = 30;
ValidForParentMinorAxisWidth = 15;
};
})
);
},
{
closed = 0;
nodes = (
(299,332,l,{
"Letterink-NibData" = {
AngleInDegrees = 2;
MainAxisWidth = 136;
MinorAxisWidth = 40;
ValidForParentMainAxisWidth = 30;
ValidForParentMinorAxisWidth = 15;
};
}),
(498,577,o),
(293,675,o),
(100,628,c,{
"Letterink-NibData" = {
AngleInDegrees = 14;
MainAxisWidth = 150;
MinorAxisWidth = 15;
ValidForParentMainAxisWidth = 30;
ValidForParentMinorAxisWidth = 15;
};
})
);
},
{
closed = 0;
nodes = (
(109,408,l,{
"Letterink-NibData" = {
AngleInDegrees = 25;
MainAxisWidth = 150;
MinorAxisWidth = 15;
ValidForParentMainAxisWidth = 30;
ValidForParentMinorAxisWidth = 15;
};
}),
(391,298,o),
(490,285,o),
(352,112,c,{
"Letterink-NibData" = {
AngleInDegrees = 5;
MainAxisWidth = 160;
MinorAxisWidth = 46;
ValidForParentMainAxisWidth = 30;
ValidForParentMinorAxisWidth = 15;
};
})
);
}
);
width = 520;
}
);
unicode = 66;
},
{
glyphname = C;
lastChange = "2023-11-01 22:03:54 +0000";
layers = (
{
layerId = m01;
shapes = (
{
closed = 0;
nodes = (
(284,575,l,{
"Letterink-NibData" = {
AngleInDegrees = -11;
MainAxisWidth = 150;
MinorAxisWidth = 15;
ValidForParentMainAxisWidth = 30;
ValidForParentMinorAxisWidth = 15;
};
}),
(-149,125,o),
(207,-13,o),
(355,124,c,{
"Letterink-NibData" = {
AngleInDegrees = 20;
MainAxisWidth = 174;
MinorAxisWidth = 15;
ValidForParentMainAxisWidth = 30;
ValidForParentMinorAxisWidth = 15;
};
})
);
},
{
closed = 0;
nodes = (
(385,537,l,{
"Letterink-NibData" = {
AngleInDegrees = 7;
MainAxisWidth = 150;
MinorAxisWidth = 15;
ValidForParentMainAxisWidth = 30;
ValidForParentMinorAxisWidth = 15;
};
}),
(320,534,o),
(218,603,o),
(205,644,c,{
"Letterink-NibData" = {
AngleInDegrees = 7;
MainAxisWidth = 150;
MinorAxisWidth = 15;
ValidForParentMainAxisWidth = 30;
ValidForParentMinorAxisWidth = 15;
};
})
);
}
);
width = 447;
}
);
unicode = 67;
},
{
glyphname = D;
lastChange = "2023-11-01 22:46:18 +0000";
layers = (
{
layerId = m01;
shapes = (
{
closed = 0;
nodes = (
(95,641,l,{
"Letterink-NibData" = {
AngleInDegrees = 25;
MainAxisWidth = 150;
MinorAxisWidth = 15;
ValidForParentMainAxisWidth = 30;
ValidForParentMinorAxisWidth = 15;
};
}),
(414,459,o),
(501,261,o),
(390,113,c,{
"Letterink-NibData" = {
AngleInDegrees = 8;
MainAxisWidth = 100;
MinorAxisWidth = 27;
ValidForParentMainAxisWidth = 30;
ValidForParentMinorAxisWidth = 15;
};
})
);
},
{
closed = 0;
nodes = (
(83,97,l,{
"Letterink-NibData" = {
MainAxisWidth = 50;
MinorAxisWidth = 65;
ValidForParentMainAxisWidth = 30;
ValidForParentMinorAxisWidth = 15;
};
}),
(111,330,o),
(155,607,o),
(149,616,c,{
"Letterink-NibData" = {
MainAxisWidth = 50;
MinorAxisWidth = 65;
ValidForParentMainAxisWidth = 30;
ValidForParentMinorAxisWidth = 15;
};
})
);
},
{
closed = 0;
nodes = (
(360,75,l,{
"Letterink-NibData" = {
AngleInDegrees = 6;
MainAxisWidth = 160;
MinorAxisWidth = 34;
ValidForParentMainAxisWidth = 30;
ValidForParentMinorAxisWidth = 15;
};
}),
(145,98,o),
(81,107,o),
(52,84,c,{
"Letterink-NibData" = {
AngleInDegrees = 25;
MainAxisWidth = 150;
MinorAxisWidth = 15;
ValidForParentMainAxisWidth = 30;
ValidForParentMinorAxisWidth = 15;
};
})
);
}
);
width = 502;
}
);
unicode = 68;
},
{
glyphname = E;
lastChange = "2023-11-01 22:04:17 +0000";
layers = (
{
layerId = m01;
shapes = (
{
closed = 0;
nodes = (
(133,605,l,{
"Letterink-NibData" = {
AngleInDegrees = -5;
MainAxisWidth = 65;
MinorAxisWidth = 15;
ValidForParentMainAxisWidth = 30;
ValidForParentMinorAxisWidth = 15;
};
}),
(79,83,l,{
"Letterink-NibData" = {
AngleInDegrees = 22;
MainAxisWidth = 150;
MinorAxisWidth = 37;
ValidForParentMainAxisWidth = 30;
ValidForParentMinorAxisWidth = 15;
};
}),
(120,118,o),
(149,120,o),
(199,104,cs,{
"Letterink-NibData" = {
AngleInDegrees = 25;
MainAxisWidth = 150;
MinorAxisWidth = 15;
ValidForParentMainAxisWidth = 30;
ValidForParentMinorAxisWidth = 15;
};
}),
(264,83,o),
(355,74,o),
(398,110,c,{
"Letterink-NibData" = {
AngleInDegrees = 29;
MainAxisWidth = 150;
MinorAxisWidth = 15;
ValidForParentMainAxisWidth = 30;
ValidForParentMinorAxisWidth = 15;
};
})
);
},
{
closed = 0;
nodes = (
(57,353,l,{
"Letterink-NibData" = {
AngleInDegrees = 25;
MainAxisWidth = 150;
MinorAxisWidth = 15;
ValidForParentMainAxisWidth = 30;
ValidForParentMinorAxisWidth = 15;
};
}),
(380,354,l,{
"Letterink-NibData" = {
AngleInDegrees = 25;
MainAxisWidth = 150;
MinorAxisWidth = 15;
ValidForParentMainAxisWidth = 30;
ValidForParentMinorAxisWidth = 15;
};
})
);
},
{
closed = 0;
nodes = (
(437,618,l,{
"Letterink-NibData" = {
AngleInDegrees = 29;
MainAxisWidth = 150;
MinorAxisWidth = 15;
ValidForParentMainAxisWidth = 30;
ValidForParentMinorAxisWidth = 15;
};
}),
(384,579,o),
(143,651,o),
(75,596,c,{
"Letterink-NibData" = {
AngleInDegrees = 29;
MainAxisWidth = 150;
MinorAxisWidth = 15;
ValidForParentMainAxisWidth = 30;
ValidForParentMinorAxisWidth = 15;
};
})
);
}
);
width = 490;
}
);
unicode = 69;
},
{
glyphname = F;
lastChange = "2023-11-01 23:33:11 +0000";
layers = (
{
layerId = m01;
shapes = (
{
closed = 0;
nodes = (
(134,608,l,{
"Letterink-NibData" = {
AngleInDegrees = 22;
MainAxisWidth = 150;
MinorAxisWidth = 37;
ValidForParentMainAxisWidth = 30;
ValidForParentMinorAxisWidth = 15;
};
}),
(84,102,l,{
"Letterink-NibData" = {
AngleInDegrees = -13;
MainAxisWidth = 60;
MinorAxisWidth = 15;
ValidForParentMainAxisWidth = 30;
ValidForParentMinorAxisWidth = 15;
};
})
);
},
{
closed = 0;
nodes = (
(429,621,l,{
"Letterink-NibData" = {
AngleInDegrees = 29;
MainAxisWidth = 150;
MinorAxisWidth = 15;
ValidForParentMainAxisWidth = 30;
ValidForParentMinorAxisWidth = 15;
};
}),
(388,582,o),
(132,630,o),
(83,605,c,{
"Letterink-NibData" = {
AngleInDegrees = 26;
MainAxisWidth = 150;
MinorAxisWidth = 15;
ValidForParentMainAxisWidth = 30;
ValidForParentMinorAxisWidth = 15;
};
})
);
},
{
closed = 0;
nodes = (
(362,358,l,{
"Letterink-NibData" = {
AngleInDegrees = 29;
MainAxisWidth = 150;
MinorAxisWidth = 15;
ValidForParentMainAxisWidth = 30;
ValidForParentMinorAxisWidth = 15;
};
}),
(323,336,o),
(100,369,o),
(59,345,c,{
"Letterink-NibData" = {
AngleInDegrees = 29;
MainAxisWidth = 150;
MinorAxisWidth = 15;
ValidForParentMainAxisWidth = 30;
ValidForParentMinorAxisWidth = 15;
};
})
);
},
{
closed = 0;
nodes = (
(19,84,l,{
"Letterink-NibData" = {
AngleInDegrees = 25;
MainAxisWidth = 150;
MinorAxisWidth = 15;
ValidForParentMainAxisWidth = 30;
ValidForParentMinorAxisWidth = 15;
};
}),
(58,120,o),
(140,124,o),
(171,84,c,{
"Letterink-NibData" = {
AngleInDegrees = 25;
MainAxisWidth = 150;
MinorAxisWidth = 15;
ValidForParentMainAxisWidth = 30;
ValidForParentMinorAxisWidth = 15;
};
})
);
}
);
width = 490;
}
);
unicode = 70;
},
{
glyphname = G;
lastChange = "2023-10-24 09:25:38 +0000";
layers = (
{
layerId = m01;
shapes = (
{
closed = 0;
nodes = (
(340,607,l,{
"Letterink-NibData" = {
AngleInDegrees = -18;
MainAxisWidth = 102;
MinorAxisWidth = 22;
ValidForParentMainAxisWidth = 30;
ValidForParentMinorAxisWidth = 15;
};
}),
(71,370,o),
(26,162,o),
(149,73,cs,{
"Letterink-NibData" = {
MainAxisWidth = 150;
MinorAxisWidth = 15;
ValidForParentMainAxisWidth = 30;
ValidForParentMinorAxisWidth = 15;
};
}),
(227,16,o),
(331,100,o),
(394,218,cs,{
"Letterink-NibData" = {
AngleInDegrees = 13;
MainAxisWidth = 150;
MinorAxisWidth = 15;
ValidForParentMainAxisWidth = 30;
ValidForParentMinorAxisWidth = 15;
};
})
);
},
{
closed = 0;
nodes = (
(272,329,l,{
"Letterink-NibData" = {
AngleInDegrees = 6;
MainAxisWidth = 150;
MinorAxisWidth = 15;
ValidForParentMainAxisWidth = 30;
ValidForParentMinorAxisWidth = 15;
};
}),
(320,367,o),
(397,338,o),
(397,254,c,{
"Letterink-NibData" = {
AngleInDegrees = -6;
MainAxisWidth = 150;
MinorAxisWidth = 15;
ValidForParentMainAxisWidth = 30;
ValidForParentMinorAxisWidth = 15;
};
}),
(378,60,ls,{
"Letterink-NibData" = {
AngleInDegrees = -6;
MainAxisWidth = 150;
MinorAxisWidth = 15;
ValidForParentMainAxisWidth = 30;
ValidForParentMinorAxisWidth = 15;
};
}),
(372,-4,o),
(382,-18,o),
(408,-36,c,{
"Letterink-NibData" = {
MainAxisWidth = 150;
MinorAxisWidth = 15;
ValidForParentMainAxisWidth = 30;
ValidForParentMinorAxisWidth = 15;
};
})
);
},
{
closed = 0;
nodes = (
(408,646,l,{
"Letterink-NibData" = {
AngleInDegrees = 25;
MainAxisWidth = 150;
MinorAxisWidth = 15;
ValidForParentMainAxisWidth = 30;
ValidForParentMinorAxisWidth = 15;
};
}),
(378,615,o),
(257,610,o),
(216,648,c,{
"Letterink-NibData" = {
AngleInDegrees = 25;
MainAxisWidth = 150;
MinorAxisWidth = 15;
ValidForParentMainAxisWidth = 30;
ValidForParentMinorAxisWidth = 15;
};
})
);
}
);
width = 490;
}
);
unicode = 71;
},
{
glyphname = H;
lastChange = "2023-10-16 12:09:23 +0000";
layers = (
{
layerId = m01;
shapes = (
{
closed = 0;
nodes = (
(59,353,l,{
"Letterink-NibData" = {
AngleInDegrees = "25";
MainAxisWidth = "150";
MinorAxisWidth = "15";
ValidForParentMainAxisWidth = "30";
ValidForParentMinorAxisWidth = "15";
};
}),
(492,354,l,{
"Letterink-NibData" = {
AngleInDegrees = "25";
MainAxisWidth = "150";
MinorAxisWidth = "15";
ValidForParentMainAxisWidth = "30";
ValidForParentMinorAxisWidth = "15";
};
})
);
},
{
closed = 0;
nodes = (
(123,645,l,{
"Letterink-NibData" = {
AngleInDegrees = "-1";
MainAxisWidth = "155";
MinorAxisWidth = "15";
ValidForParentMainAxisWidth = "30";
ValidForParentMinorAxisWidth = "15";
};
}),
(143,650,o),
(154,612,o),
(149,544,cs,{
"Letterink-NibData" = {
AngleInDegrees = "-6";
MainAxisWidth = "155";
MinorAxisWidth = "15";
ValidForParentMainAxisWidth = "30";
ValidForParentMinorAxisWidth = "15";
};
}),
(120,162,ls,{
"Letterink-NibData" = {
AngleInDegrees = "-6";
MainAxisWidth = "155";
MinorAxisWidth = "15";
ValidForParentMainAxisWidth = "30";
ValidForParentMinorAxisWidth = "15";
};
}),
(115,97,o),
(121,59,o),
(150,64,c,{
"Letterink-NibData" = {
MainAxisWidth = "155";
MinorAxisWidth = "15";
ValidForParentMainAxisWidth = "30";
ValidForParentMinorAxisWidth = "15";
};
})
);
},
{
closed = 0;
nodes = (
(392,645,l,{
"Letterink-NibData" = {
AngleInDegrees = "-1";
MainAxisWidth = "155";
MinorAxisWidth = "15";
ValidForParentMainAxisWidth = "30";
ValidForParentMinorAxisWidth = "15";
};
}),
(412,650,o),
(423,612,o),
(418,544,cs,{
"Letterink-NibData" = {
AngleInDegrees = "-6";
MainAxisWidth = "155";
MinorAxisWidth = "15";
ValidForParentMainAxisWidth = "30";
ValidForParentMinorAxisWidth = "15";
};
}),
(389,162,ls,{
"Letterink-NibData" = {
AngleInDegrees = "-6";
MainAxisWidth = "155";
MinorAxisWidth = "15";
ValidForParentMainAxisWidth = "30";
ValidForParentMinorAxisWidth = "15";
};
}),
(384,97,o),
(390,59,o),
(419,64,c,{
"Letterink-NibData" = {
MainAxisWidth = "155";
MinorAxisWidth = "15";
ValidForParentMainAxisWidth = "30";
ValidForParentMinorAxisWidth = "15";
};
})
);
}
);
width = 550;
}
);
unicode = 72;
},
{
glyphname = I;
lastChange = "2023-10-24 09:25:51 +0000";
layers = (
{
layerId = m01;
shapes = (
{
closed = 0;
nodes = (
(101,643,l,{
"Letterink-NibData" = {
AngleInDegrees = "-1";
MainAxisWidth = "155";
MinorAxisWidth = "15";
ValidForParentMainAxisWidth = "30";
ValidForParentMinorAxisWidth = "15";
};
}),
(121,648,o),
(132,613,o),
(127,544,cs,{
"Letterink-NibData" = {
AngleInDegrees = "-6";
MainAxisWidth = "155";
MinorAxisWidth = "15";
ValidForParentMainAxisWidth = "30";
ValidForParentMinorAxisWidth = "15";
};
}),
(98,162,ls,{
"Letterink-NibData" = {
AngleInDegrees = "-6";
MainAxisWidth = "155";
MinorAxisWidth = "15";
ValidForParentMainAxisWidth = "30";
ValidForParentMinorAxisWidth = "15";
};
}),
(93,97,o),
(99,59,o),
(128,64,c,{
"Letterink-NibData" = {
MainAxisWidth = "155";
MinorAxisWidth = "15";
ValidForParentMainAxisWidth = "30";
ValidForParentMinorAxisWidth = "15";
};
})
);
}
);
width = 225;
}
);
unicode = 73;
},
{
glyphname = J;
lastChange = "2023-11-01 22:04:24 +0000";
layers = (
{
layerId = m01;
shapes = (
{
closed = 0;
nodes = (
(235,75,l,{
"Letterink-NibData" = {
AngleInDegrees = 7;
MainAxisWidth = 150;
MinorAxisWidth = 15;
ValidForParentMainAxisWidth = 30;
ValidForParentMinorAxisWidth = 15;
};
}),
(226,117,o),
(145,177,o),
(113,179,c,{
"Letterink-NibData" = {
AngleInDegrees = 7;
MainAxisWidth = 150;
MinorAxisWidth = 15;
ValidForParentMainAxisWidth = 30;
ValidForParentMinorAxisWidth = 15;
};
})
);
},
{
closed = 0;
nodes = (
(372,645,l,{
"Letterink-NibData" = {
AngleInDegrees = "-1";
MainAxisWidth = "155";
MinorAxisWidth = "15";
ValidForParentMainAxisWidth = "30";
ValidForParentMinorAxisWidth = "15";
};
}),
(392,650,o),
(405,612,o),
(398,544,cs,{
"Letterink-NibData" = {
AngleInDegrees = "-6";
MainAxisWidth = "155";
MinorAxisWidth = "15";
ValidForParentMainAxisWidth = "30";
ValidForParentMinorAxisWidth = "15";
};
}),
(369,275,ls,{
"Letterink-NibData" = {
AngleInDegrees = "-6";
MainAxisWidth = "155";
MinorAxisWidth = "15";
ValidForParentMainAxisWidth = "30";
ValidForParentMinorAxisWidth = "15";
};
}),
(362,210,o),
(327,132,o),
(247,70,c,{
"Letterink-NibData" = {
MainAxisWidth = "155";
MinorAxisWidth = "15";
ValidForParentMainAxisWidth = "30";
ValidForParentMinorAxisWidth = "15";
};
})
);
}
);
width = 520;
}
);
unicode = 74;
},
{
glyphname = K;
lastChange = "2023-11-01 22:07:10 +0000";
layers = (
{
layerId = m01;
shapes = (
{
closed = 0;
nodes = (
(215,407,l,{
"Letterink-NibData" = {
AngleInDegrees = 4;
MainAxisWidth = 150;
MinorAxisWidth = 15;
ValidForParentMainAxisWidth = 30;
ValidForParentMinorAxisWidth = 15;
};
}),
(236,395,o),
(336,54,o),
(414,69,c,{
"Letterink-NibData" = {
AngleInDegrees = 4;
MainAxisWidth = 150;
MinorAxisWidth = 14;
ValidForParentMainAxisWidth = 30;
ValidForParentMinorAxisWidth = 15;
};
})
);
},
{
closed = 0;
nodes = (
(82,644,l,{
"Letterink-NibData" = {
MainAxisWidth = 155;
MinorAxisWidth = 15;
ValidForParentMainAxisWidth = 30;
ValidForParentMinorAxisWidth = 15;
};
}),
(90,638,o),
(113,614,o),
(108,552,cs,{
"Letterink-NibData" = {
AngleInDegrees = -6;
MainAxisWidth = 155;
MinorAxisWidth = 15;
ValidForParentMainAxisWidth = 30;
ValidForParentMinorAxisWidth = 15;
};
}),
(79,174,ls,{
"Letterink-NibData" = {
AngleInDegrees = -6;
MainAxisWidth = 155;
MinorAxisWidth = 15;
ValidForParentMainAxisWidth = 30;
ValidForParentMinorAxisWidth = 15;
};
}),
(74,109,o),
(79,76,o),
(109,76,c,{
"Letterink-NibData" = {
AngleInDegrees = 4.06206;
MainAxisWidth = 169.64366;
MinorAxisWidth = 21;
ValidForParentMainAxisWidth = 30;
ValidForParentMinorAxisWidth = 15;
};
})
);
},
{
closed = 0;
nodes = (
(470,629,l,{
"Letterink-NibData" = {
AngleInDegrees = 25;
MainAxisWidth = 150;
MinorAxisWidth = 15;
ValidForParentMainAxisWidth = 30;
ValidForParentMinorAxisWidth = 15;
};
}),
(431,593,o),
(349,589,o),
(318,629,c,{
"Letterink-NibData" = {
AngleInDegrees = 25;
MainAxisWidth = 150;
MinorAxisWidth = 15;
ValidForParentMainAxisWidth = 30;
ValidForParentMinorAxisWidth = 15;
};
})
);
},
{
closed = 0;
nodes = (
(399,592,l,{
"Letterink-NibData" = {
AngleInDegrees = -45;
MainAxisWidth = 67;
MinorAxisWidth = 15;
ValidForParentMainAxisWidth = 30;
ValidForParentMinorAxisWidth = 15;
};
}),
(384,575,o),
(90,247,o),
(90,247,c,{
"Letterink-NibData" = {
AngleInDegrees = -45;
MainAxisWidth = 67;
MinorAxisWidth = 15;
ValidForParentMainAxisWidth = 30;
ValidForParentMinorAxisWidth = 15;
};
})
);
}
);
width = 502;
}
);
unicode = 75;
},
{
glyphname = L;
lastChange = "2023-11-01 21:01:05 +0000";
layers = (
{
layerId = m01;
shapes = (
{
closed = 0;
nodes = (
(105,646,l,{
"Letterink-NibData" = {
AngleInDegrees = -1;
MainAxisWidth = 150;
MinorAxisWidth = 15;
ValidForParentMainAxisWidth = 30;
ValidForParentMinorAxisWidth = 15;
};
})
);
},
{
closed = 0;
nodes = (
(53,74,l,{
"Letterink-NibData" = {
AngleInDegrees = 17.9917;
MainAxisWidth = 135;
MinorAxisWidth = 15;
ValidForParentMainAxisWidth = 30;
ValidForParentMinorAxisWidth = 15;
};
}),
(95,123,o),
(155,137,o),
(204,113,cs,{
"Letterink-NibData" = {
AngleInDegrees = 13;
MainAxisWidth = 150;
MinorAxisWidth = 15;
ValidForParentMainAxisWidth = 30;
ValidForParentMinorAxisWidth = 15;
};
}),
(245,93,o),
(293,68,o),
(339,101,c,{
"Letterink-NibData" = {
AngleInDegrees = 25;
MainAxisWidth = 150;
MinorAxisWidth = 15;
ValidForParentMainAxisWidth = 30;
ValidForParentMinorAxisWidth = 15;
};
})
);
},
{
closed = 0;
nodes = (
(105,646,l,{
"Letterink-NibData" = {
AngleInDegrees = -1;
MainAxisWidth = 150;
MinorAxisWidth = 15;
ValidForParentMainAxisWidth = 30;
ValidForParentMinorAxisWidth = 15;
};
}),
(123,613,o),
(129,605,o),
(124,544,c,{
"Letterink-NibData" = {
AngleInDegrees = -6;
MainAxisWidth = 150;
MinorAxisWidth = 15;
ValidForParentMainAxisWidth = 30;
ValidForParentMinorAxisWidth = 15;
};
}),
(85,88,l,{
"Letterink-NibData" = {
AngleInDegrees = 1;
MainAxisWidth = 167;
MinorAxisWidth = 20;
ValidForParentMainAxisWidth = 30;
ValidForParentMinorAxisWidth = 15;
};
})
);
}
);
width = 430;
}
);
unicode = 76;
},
{
glyphname = M;
lastChange = "2023-11-01 22:10:00 +0000";
layers = (
{
layerId = m01;
shapes = (
{
closed = 0;
nodes = (
(241,646,l,{
"Letterink-NibData" = {
MainAxisWidth = 140;
MinorAxisWidth = 15;
ValidForParentMainAxisWidth = 30;
ValidForParentMinorAxisWidth = 15;
};
}),
(312,533,o),
(344,110,o),
(397,61,c,{
"Letterink-NibData" = {
MainAxisWidth = 140;
MinorAxisWidth = 15;
ValidForParentMainAxisWidth = 30;
ValidForParentMinorAxisWidth = 15;
};
})
);
},
{
closed = 0;
nodes = (
(118,115,l,{
"Letterink-NibData" = {
AngleInDegrees = -15;
MainAxisWidth = 70;
MinorAxisWidth = 15;
ValidForParentMainAxisWidth = 30;
ValidForParentMinorAxisWidth = 15;
};
}),
(195,343,o),
(208,616,o),
(208,616,c,{
"Letterink-NibData" = {
MainAxisWidth = 70;
MinorAxisWidth = 10;
ValidForParentMainAxisWidth = 30;
ValidForParentMinorAxisWidth = 15;
};
})
);
},
{
closed = 0;
nodes = (
(387,170,l,{
"Letterink-NibData" = {
AngleInDegrees = -23;
MainAxisWidth = 70;
MinorAxisWidth = 15;
ValidForParentMainAxisWidth = 30;
ValidForParentMinorAxisWidth = 15;
};
}),
(473,387,o),
(532,593,o),
(534,608,c,{
"Letterink-NibData" = {
AngleInDegrees = -5;
MainAxisWidth = 70;
MinorAxisWidth = 19;
ValidForParentMainAxisWidth = 30;
ValidForParentMinorAxisWidth = 15;
};
})
);
},
{
closed = 0;
nodes = (
(564,642,l,{
"Letterink-NibData" = {
MainAxisWidth = 150;
MinorAxisWidth = 15;
ValidForParentMainAxisWidth = 30;
ValidForParentMinorAxisWidth = 15;
};
}),
(568,526,o),
(564,66,o),
(632,62,c,{
"Letterink-NibData" = {
MainAxisWidth = 140;
MinorAxisWidth = 15;
ValidForParentMainAxisWidth = 30;
ValidForParentMinorAxisWidth = 15;
};
})
);
},
{
closed = 0;
nodes = (
(39,84,l,{
"Letterink-NibData" = {
AngleInDegrees = 25;
MainAxisWidth = 150;
MinorAxisWidth = 15;
ValidForParentMainAxisWidth = 30;
ValidForParentMinorAxisWidth = 15;
};
}),
(77,120,o),
(165,124,o),
(195,84,c,{
"Letterink-NibData" = {
AngleInDegrees = 25;
MainAxisWidth = 150;
MinorAxisWidth = 15;
ValidForParentMainAxisWidth = 30;
ValidForParentMinorAxisWidth = 15;
};
})
);
}
);
width = 699;
}
);
unicode = 77;
},
{
glyphname = N;
lastChange = "2023-11-01 22:49:01 +0000";
layers = (
{
layerId = m01;
shapes = (
{
closed = 0;
nodes = (
(175,648,l,{
"Letterink-NibData" = {
MainAxisWidth = 140;
MinorAxisWidth = 15;
ValidForParentMainAxisWidth = 30;
ValidForParentMinorAxisWidth = 15;
};
}),
(266,485,o),
(366,188,o),
(468,62,c,{
"Letterink-NibData" = {
MainAxisWidth = 140;
MinorAxisWidth = 15;
ValidForParentMainAxisWidth = 30;
ValidForParentMinorAxisWidth = 15;
};
})
);
},
{
closed = 0;
nodes = (
(127,119,l,{
"Letterink-NibData" = {
AngleInDegrees = -37;
MainAxisWidth = 50;
MinorAxisWidth = 15;
ValidForParentMainAxisWidth = 30;
ValidForParentMinorAxisWidth = 15;
};
}),
(144,163,o),
(170,576,o),
(170,576,cs,{
"Letterink-NibData" = {
AngleInDegrees = -13;
MainAxisWidth = 50;
MinorAxisWidth = 15;
ValidForParentMainAxisWidth = 30;
ValidForParentMinorAxisWidth = 15;
};
})
);
},
{
closed = 0;
nodes = (
(39,86,l,{
"Letterink-NibData" = {
AngleInDegrees = 25;
MainAxisWidth = 150;
MinorAxisWidth = 15;
ValidForParentMainAxisWidth = 30;
ValidForParentMinorAxisWidth = 15;
};
}),
(78,122,o),
(160,126,o),
(191,86,c,{
"Letterink-NibData" = {
AngleInDegrees = 25;
MainAxisWidth = 150;
MinorAxisWidth = 15;
ValidForParentMainAxisWidth = 30;
ValidForParentMinorAxisWidth = 15;
};
})
);
},
{
closed = 0;
nodes = (
(578,627,l,{
"Letterink-NibData" = {
AngleInDegrees = 25;
MainAxisWidth = 150;
MinorAxisWidth = 15;
ValidForParentMainAxisWidth = 30;
ValidForParentMinorAxisWidth = 15;
};
}),
(539,591,o),
(457,587,o),
(426,627,c,{
"Letterink-NibData" = {
AngleInDegrees = 25;
MainAxisWidth = 150;
MinorAxisWidth = 15;
ValidForParentMainAxisWidth = 30;
ValidForParentMinorAxisWidth = 15;
};
})
);
},
{
closed = 0;
nodes = (
(451,115,l,{
"Letterink-NibData" = {
AngleInDegrees = -22;
MainAxisWidth = 58;
MinorAxisWidth = 15;
ValidForParentMainAxisWidth = 30;
ValidForParentMinorAxisWidth = 15;
};
}),
(468,159,o),
(495,576,o),
(495,576,c,{
"Letterink-NibData" = {
AngleInDegrees = -16;
MainAxisWidth = 50;
MinorAxisWidth = 15;
ValidForParentMainAxisWidth = 30;
ValidForParentMinorAxisWidth = 15;
};
})
);
}
);
width = 617;
}
);
unicode = 78;
},
{
glyphname = O;
lastChange = "2023-11-01 23:47:50 +0000";
layers = (
{
layerId = m01;
shapes = (
{
closed = 0;
nodes = (
(203,51,l,{
"Letterink-NibData" = {
AngleInDegrees = "-4";
MainAxisWidth = "150";
MinorAxisWidth = "34";
ValidForParentMainAxisWidth = "30";
ValidForParentMinorAxisWidth = "15";
};
}),
(280,113,o),
(492,296,o),
(220,632,c,{
"Letterink-NibData" = {
AngleInDegrees = "18";
MainAxisWidth = "157";
MinorAxisWidth = "16";
ValidForParentMainAxisWidth = "30";
ValidForParentMinorAxisWidth = "15";
};
})
);
},
{
closed = 0;
nodes = (
(215,632,l,{
"Letterink-NibData" = {
AngleInDegrees = "13";
MainAxisWidth = "157";
MinorAxisWidth = "24";
ValidForParentMainAxisWidth = "30";
ValidForParentMinorAxisWidth = "15";
};
}),
(188,596,o),
(-121,113,o),
(196,48,c,{
"Letterink-NibData" = {
AngleInDegrees = "-4";
MainAxisWidth = "150";
MinorAxisWidth = "34";
ValidForParentMainAxisWidth = "30";
ValidForParentMinorAxisWidth = "15";
};
})
);
}
);
width = 426;
}
);
unicode = 79;
},
{
glyphname = P;
lastChange = "2023-11-01 21:29:27 +0000";
layers = (
{
layerId = m01;
shapes = (
{
closed = 0;
nodes = (
(307,310,l,{
"Letterink-NibData" = {
AngleInDegrees = 2;
MainAxisWidth = 136;
MinorAxisWidth = 40;
ValidForParentMainAxisWidth = 30;
ValidForParentMinorAxisWidth = 15;
};
}),
(506,567,o),
(301,665,o),
(108,618,c,{
"Letterink-NibData" = {
AngleInDegrees = 14;
MainAxisWidth = 150;
MinorAxisWidth = 15;
ValidForParentMainAxisWidth = 30;
ValidForParentMinorAxisWidth = 15;
};
})
);
},
{
closed = 0;
nodes = (
(287,296,l,{
"Letterink-NibData" = {
AngleInDegrees = 5;
MainAxisWidth = 160;
MinorAxisWidth = 46;
ValidForParentMainAxisWidth = 30;
ValidForParentMinorAxisWidth = 15;
};
}),
(142,312,o),
(84,318,o),
(64,310,c,{
"Letterink-NibData" = {
AngleInDegrees = 25;
MainAxisWidth = 150;
MinorAxisWidth = 15;
ValidForParentMainAxisWidth = 30;
ValidForParentMinorAxisWidth = 15;
};
})
);
},
{
closed = 0;
nodes = (
(164,547,l,{
"Letterink-NibData" = {
AngleInDegrees = "-6";
MainAxisWidth = "150";
MinorAxisWidth = "15";
ValidForParentMainAxisWidth = "30";
ValidForParentMinorAxisWidth = "15";
};
}),
(135,160,ls,{
"Letterink-NibData" = {
AngleInDegrees = "-6";
MainAxisWidth = "150";
MinorAxisWidth = "15";
ValidForParentMainAxisWidth = "30";
ValidForParentMinorAxisWidth = "15";
};
}),
(130,96,o),
(139,64,o),
(165,64,c,{
"Letterink-NibData" = {
MainAxisWidth = "150";
MinorAxisWidth = "15";
ValidForParentMainAxisWidth = "30";
ValidForParentMinorAxisWidth = "15";
};
})
);
}
);
width = 480;
}
);
unicode = 80;
},
{
glyphname = Q;
lastChange = "2023-11-01 21:27:00 +0000";
layers = (
{
layerId = m01;
shapes = (
{
closed = 0;
nodes = (
(259,50,l,{
"Letterink-NibData" = {
AngleInDegrees = -4;
MainAxisWidth = 150;
MinorAxisWidth = 52;
ValidForParentMainAxisWidth = 30;
ValidForParentMinorAxisWidth = 15;
};
}),
(362,130,o),
(612,296,o),
(291,632,c,{
"Letterink-NibData" = {
AngleInDegrees = 18;
MainAxisWidth = 157;
MinorAxisWidth = 16;
ValidForParentMainAxisWidth = 30;
ValidForParentMinorAxisWidth = 15;
};
})
);
},
{
closed = 0;
nodes = (
(284,632,l,{
"Letterink-NibData" = {
AngleInDegrees = 13;
MainAxisWidth = 157;
MinorAxisWidth = 24;
ValidForParentMainAxisWidth = 30;
ValidForParentMinorAxisWidth = 15;
};
}),
(253,596,o),
(-113,113,o),
(262,48,c,{
"Letterink-NibData" = {
AngleInDegrees = -4;
MainAxisWidth = 150;
MinorAxisWidth = 34;
ValidForParentMainAxisWidth = 30;
ValidForParentMinorAxisWidth = 15;
};
})
);
},
{
closed = 0;
nodes = (
(293,296,l,{
"Letterink-NibData" = {
AngleInDegrees = 5.33775;
MainAxisWidth = 35;
MinorAxisWidth = 4.01399;
ValidForParentMainAxisWidth = 30;
ValidForParentMinorAxisWidth = 15;
};
}),
(305,205,o),
(419,48,o),
(529,87,cs,{
"Letterink-NibData" = {
AngleInDegrees = 25;
MainAxisWidth = 183;
MinorAxisWidth = 19;
ValidForParentMainAxisWidth = 30;
ValidForParentMinorAxisWidth = 15;
};
})
);
}
);
width = 600;
}
);
unicode = 81;
},
{
glyphname = R;
lastChange = "2023-11-01 22:49:57 +0000";
layers = (
{
layerId = m01;
shapes = (
{
closed = 0;
nodes = (
(-108,91,l,{
"Letterink-NibData" = {
AngleInDegrees = 19;
MainAxisWidth = 150;
MinorAxisWidth = 14;
ValidForParentMainAxisWidth = 30;
ValidForParentMinorAxisWidth = 15;
};
})
);
},
{
closed = 0;
nodes = (
(180,498,l,{
"Letterink-NibData" = {
AngleInDegrees = "24";
MainAxisWidth = "150";
MinorAxisWidth = "15";
ValidForParentMainAxisWidth = "30";
ValidForParentMinorAxisWidth = "15";
};
}),
(185,355,o),
(460,40,o),
(523,88,c,{
"Letterink-NibData" = {
AngleInDegrees = "25";
MainAxisWidth = "150";
MinorAxisWidth = "14";
ValidForParentMainAxisWidth = "30";
ValidForParentMinorAxisWidth = "15";
};
})
);
},
{
closed = 0;
nodes = (
(54,84,l,{
"Letterink-NibData" = {
AngleInDegrees = "25";
MainAxisWidth = "150";
MinorAxisWidth = "15";
ValidForParentMainAxisWidth = "30";
ValidForParentMinorAxisWidth = "15";
};
}),
(93,120,o),
(175,124,o),
(206,84,c,{
"Letterink-NibData" = {
AngleInDegrees = "25";
MainAxisWidth = "150";
MinorAxisWidth = "15";
ValidForParentMainAxisWidth = "30";
ValidForParentMinorAxisWidth = "15";
};
})
);
},
{
closed = 0;
nodes = (
(162,501,l,{
"Letterink-NibData" = {
AngleInDegrees = "26";
MainAxisWidth = "150";
MinorAxisWidth = "61";
ValidForParentMainAxisWidth = "30";
ValidForParentMinorAxisWidth = "15";
};
}),
(154,330,o),
(154,329,o),
(133,84,c,{
"Letterink-NibData" = {
MainAxisWidth = "70";
MinorAxisWidth = "35";
ValidForParentMainAxisWidth = "30";
ValidForParentMinorAxisWidth = "15";
};
})
);
},
{
closed = 0;
nodes = (
(307,310,l,{
"Letterink-NibData" = {
AngleInDegrees = "2";
MainAxisWidth = "136";
MinorAxisWidth = "40";
ValidForParentMainAxisWidth = "30";
ValidForParentMinorAxisWidth = "15";
};
}),
(520,567,o),
(301,665,o),
(108,618,c,{
"Letterink-NibData" = {
AngleInDegrees = "14";
MainAxisWidth = "150";
MinorAxisWidth = "15";
ValidForParentMainAxisWidth = "30";
ValidForParentMinorAxisWidth = "15";
};
})
);
}
);
width = 574;
}
);
unicode = 82;
},
{
glyphname = S;
lastChange = "2023-10-24 09:28:29 +0000";
layers = (
{
layerId = m01;
shapes = (
{
closed = 0;
nodes = (
(359,522,l,{
"Letterink-NibData" = {
MainAxisWidth = "150";
MinorAxisWidth = "15";
ValidForParentMainAxisWidth = "30";
ValidForParentMinorAxisWidth = "15";
};
}),
(397,596,o),
(295,709,o,{
"Letterink-NibData" = {
MainAxisWidth = "150";
MinorAxisWidth = "-2";
ValidForParentMainAxisWidth = "30";
ValidForParentMinorAxisWidth = "15";
};
}),
(192,624,c,{
"Letterink-NibData" = {
MainAxisWidth = "132.4263";
MinorAxisWidth = "15";
ValidForParentMainAxisWidth = "30";
ValidForParentMinorAxisWidth = "15";
};
})
);
},
{
closed = 0;
nodes = (
(129,566,l,{
"Letterink-NibData" = {
MainAxisWidth = "150";
MinorAxisWidth = "11.29133";
ValidForParentMainAxisWidth = "30";
ValidForParentMinorAxisWidth = "15";
};
}),
(89,474,o),
(160,419,o),
(229,355,cs,{
"Letterink-NibData" = {
MainAxisWidth = "142";
ValidForParentMainAxisWidth = "30";
};
}),
(294,295,o),
(376,257,o),
(329,144,c,{
"Letterink-NibData" = {
AngleInDegrees = "0";
MainAxisWidth = "150";
MinorAxisWidth = "8.462899999999999";
ValidForParentMainAxisWidth = "30";
ValidForParentMinorAxisWidth = "15";
};
})
);
},
{
closed = 0;
nodes = (
(79,172,l,{
"Letterink-NibData" = {
MainAxisWidth = "150";
MinorAxisWidth = "15";
ValidForParentMainAxisWidth = "30";
ValidForParentMinorAxisWidth = "15";
};
}),
(49,98,o),
(163,-5,o,{
"Letterink-NibData" = {
MainAxisWidth = "150";
MinorAxisWidth = "-2";
ValidForParentMainAxisWidth = "30";
ValidForParentMinorAxisWidth = "15";
};
}),
(255,73,c,{
"Letterink-NibData" = {
MainAxisWidth = "132.4263";
MinorAxisWidth = "15";
ValidForParentMainAxisWidth = "30";
ValidForParentMinorAxisWidth = "15";
};
})
);
}
);
width = 440;
}
);
unicode = 83;
},
{
glyphname = T;
lastChange = "2023-10-24 09:28:58 +0000";
layers = (
{
background = {
shapes = (
{
closed = 0;
nodes = (
(379,614,l,{
"Letterink-NibData" = {
AngleInDegrees = "22";
MainAxisWidth = "150";
MinorAxisWidth = "37";
ValidForParentMainAxisWidth = "30";
ValidForParentMinorAxisWidth = "15";
};
}),
(319,585,o),
(84,635,o),
(29,587,c,{
"Letterink-NibData" = {
AngleInDegrees = "29";
MainAxisWidth = "150";
MinorAxisWidth = "15";
ValidForParentMainAxisWidth = "30";
ValidForParentMinorAxisWidth = "15";
};
})
);
},
{
closed = 0;
nodes = (
(252,592,l,{
"Letterink-NibData" = {
MainAxisWidth = "60";
MinorAxisWidth = "35";
ValidForParentMainAxisWidth = "30";
ValidForParentMinorAxisWidth = "15";
};
}),
(149,459,o),
(106,314,o),
(100,237,cs,{
"Letterink-NibData" = {
MainAxisWidth = "150";
MinorAxisWidth = "25";
ValidForParentMainAxisWidth = "30";
ValidForParentMinorAxisWidth = "15";
};
}),
(91,130,o),
(161,52,o),
(237,60,c,{
"Letterink-NibData" = {
AngleInDegrees = "-6";
MainAxisWidth = "148";
MinorAxisWidth = "44";
ValidForParentMainAxisWidth = "30";
ValidForParentMinorAxisWidth = "15";
};
}),
(254,63,o),
(327,134,o),
(332,140,cs,{
"Letterink-NibData" = {
AngleInDegrees = "107";
MainAxisWidth = "5";
MinorAxisWidth = "-2";
ValidForParentMainAxisWidth = "30";
ValidForParentMinorAxisWidth = "15";
};
})
);
}
);
};
layerId = m01;
shapes = (
{
closed = 0;
nodes = (
(379,618,l,{
"Letterink-NibData" = {
AngleInDegrees = 22;
MainAxisWidth = 150;
MinorAxisWidth = 37;
ValidForParentMainAxisWidth = 30;
ValidForParentMinorAxisWidth = 15;
};
}),
(319,589,o),
(84,639,o),
(29,591,c,{
"Letterink-NibData" = {
AngleInDegrees = 29;
MainAxisWidth = 150;
MinorAxisWidth = 15;
ValidForParentMainAxisWidth = 30;
ValidForParentMinorAxisWidth = 15;
};
})
);
},
{
closed = 0;
nodes = (
(252,592,l,{
"Letterink-NibData" = {
MainAxisWidth = 60;
MinorAxisWidth = 35;
ValidForParentMainAxisWidth = 30;
ValidForParentMinorAxisWidth = 15;
};
}),
(149,459,o),
(106,299,o),
(100,222,cs,{
"Letterink-NibData" = {
MainAxisWidth = 150;
MinorAxisWidth = 25;
ValidForParentMainAxisWidth = 30;
ValidForParentMinorAxisWidth = 15;
};
}),
(91,115,o),
(162,34,o),
(238,42,c,{
"Letterink-NibData" = {
AngleInDegrees = -6;
MainAxisWidth = 146;
MinorAxisWidth = 12;
ValidForParentMainAxisWidth = 30;
ValidForParentMinorAxisWidth = 15;
};
})
);
}
);
width = 422;
}
);
unicode = 84;
},
{
glyphname = U;
lastChange = "2023-10-24 09:29:16 +0000";
layers = (
{
layerId = m01;
shapes = (
{
closed = 0;
nodes = (
(374,233,l,{
"Letterink-NibData" = {
MainAxisWidth = 50;
MinorAxisWidth = 65;
ValidForParentMainAxisWidth = 30;
ValidForParentMinorAxisWidth = 15;
};
})
);
},
{
closed = 0;
nodes = (
(363,353,l,{
"Letterink-NibData" = {
MainAxisWidth = 10;
MinorAxisWidth = 25;
ValidForParentMainAxisWidth = 30;
ValidForParentMinorAxisWidth = 15;
};
}),
(342,168,o),
(275,59,o),
(208,54,cs,{
"Letterink-NibData" = {
AngleInDegrees = 21;
MainAxisWidth = 120;
MinorAxisWidth = 45;
ValidForParentMainAxisWidth = 30;
ValidForParentMinorAxisWidth = 15;
};
}),
(144,49,o),
(98,148,o),
(108,246,cs,{
"Letterink-NibData" = {
AngleInDegrees = -6;
MainAxisWidth = 150;
MinorAxisWidth = 45;
ValidForParentMainAxisWidth = 30;
ValidForParentMinorAxisWidth = 15;
};
}),
(138,549,ls,{
"Letterink-NibData" = {
AngleInDegrees = -6;
MainAxisWidth = 150;
MinorAxisWidth = 45;
ValidForParentMainAxisWidth = 30;
ValidForParentMinorAxisWidth = 15;
};
}),
(144,607,o),
(124,658,o),
(76,642,c,{
"Letterink-NibData" = {
MainAxisWidth = 150;
MinorAxisWidth = 15;
ValidForParentMainAxisWidth = 30;
ValidForParentMinorAxisWidth = 15;
};
})
);
},
{
closed = 0;
nodes = (
(478,45,l,{
"Letterink-NibData" = {
MainAxisWidth = 135;
MinorAxisWidth = 15;
ValidForParentMainAxisWidth = 30;
ValidForParentMinorAxisWidth = 15;
};
}),
(415,37,o),
(381,148,o),
(391,246,cs,{
"Letterink-NibData" = {
AngleInDegrees = -6;
MainAxisWidth = 150;
MinorAxisWidth = 45;
ValidForParentMainAxisWidth = 30;
ValidForParentMinorAxisWidth = 15;
};
}),
(422,549,ls,{
"Letterink-NibData" = {
AngleInDegrees = -6;
MainAxisWidth = 150;
MinorAxisWidth = 45;
ValidForParentMainAxisWidth = 30;
ValidForParentMinorAxisWidth = 15;
};
}),
(428,607,o),
(407,658,o),
(359,642,c,{
"Letterink-NibData" = {
MainAxisWidth = 150;
MinorAxisWidth = 15;
ValidForParentMainAxisWidth = 30;
ValidForParentMinorAxisWidth = 15;
};
})
);
}
);
width = 550;
}
);
unicode = 85;
},
{
glyphname = V;
lastChange = "2023-11-01 22:12:44 +0000";
layers = (
{
layerId = m01;
shapes = (
{
closed = 0;
nodes = (
(468,615,l,{
"Letterink-NibData" = {
AngleInDegrees = -30;
MainAxisWidth = 55;
MinorAxisWidth = 15;
ValidForParentMainAxisWidth = 30;
ValidForParentMinorAxisWidth = 15;
};
}),
(412,425,o),
(322,128,o),
(310,52,cs,{
"Letterink-NibData" = {
AngleInDegrees = -6;
MainAxisWidth = 100;
MinorAxisWidth = 5;
ValidForParentMainAxisWidth = 30;
ValidForParentMinorAxisWidth = 15;
};
})
);
},
{
closed = 0;
nodes = (
(548,629,l,{
"Letterink-NibData" = {
AngleInDegrees = 25;
MainAxisWidth = 150;
MinorAxisWidth = 15;
ValidForParentMainAxisWidth = 30;
ValidForParentMinorAxisWidth = 15;
};
}),
(509,593,o),
(427,589,o),
(396,629,c,{
"Letterink-NibData" = {
AngleInDegrees = 25;
MainAxisWidth = 150;
MinorAxisWidth = 15;
ValidForParentMainAxisWidth = 30;
ValidForParentMinorAxisWidth = 15;
};
})
);
},
{
closed = 0;
nodes = (
(279,43,l,{
"Letterink-NibData" = {
AngleInDegrees = -10.20522;
MainAxisWidth = 165.3078;
MinorAxisWidth = 32;
ValidForParentMainAxisWidth = 30;
ValidForParentMinorAxisWidth = 15;
};
}),
(214,43,o),
(195,429,o),
(168,573,cs,{
"Letterink-NibData" = {
MainAxisWidth = 150;
MinorAxisWidth = 15;
ValidForParentMainAxisWidth = 30;
ValidForParentMinorAxisWidth = 15;
};
}),
(158,626,o),
(119,658,o),
(83,647,c,{
"Letterink-NibData" = {
MainAxisWidth = 150;
MinorAxisWidth = 15;
ValidForParentMainAxisWidth = 30;
ValidForParentMinorAxisWidth = 15;
};
})
);
}
);
width = 600;
}
);
unicode = 86;
},
{
glyphname = W;
lastChange = "2023-11-01 22:16:59 +0000";
layers = (
{
layerId = m01;
shapes = (
{
closed = 0;
nodes = (
(417,54,l,{
"Letterink-NibData" = {
MainAxisWidth = "140";
MinorAxisWidth = "15";
ValidForParentMainAxisWidth = "30";
ValidForParentMinorAxisWidth = "15";
};
}),
(346,167,o),
(376,590,o),
(323,639,c,{
"Letterink-NibData" = {
MainAxisWidth = "140";
MinorAxisWidth = "15";
ValidForParentMainAxisWidth = "30";
ValidForParentMinorAxisWidth = "15";
};
})
);
},
{
closed = 0;
nodes = (
(592,585,l,{
"Letterink-NibData" = {
AngleInDegrees = "-18";
MainAxisWidth = "70";
MinorAxisWidth = "15";
ValidForParentMainAxisWidth = "30";
ValidForParentMinorAxisWidth = "15";
};
}),
(515,357,o),
(440,76,o),
(440,76,c,{
"Letterink-NibData" = {
AngleInDegrees = "-2";
MainAxisWidth = "93";
MinorAxisWidth = "11";
ValidForParentMainAxisWidth = "30";
ValidForParentMinorAxisWidth = "15";
};
})
);
},
{
closed = 0;
nodes = (
(355,590,l,{
"Letterink-NibData" = {
AngleInDegrees = "-18";
MainAxisWidth = "70";
MinorAxisWidth = "15";
ValidForParentMainAxisWidth = "30";
ValidForParentMinorAxisWidth = "15";
};
}),
(324,507,o),
(227,117,o),
(215,102,c,{
"Letterink-NibData" = {
MainAxisWidth = "101";
MinorAxisWidth = "15";
ValidForParentMainAxisWidth = "30";
ValidForParentMinorAxisWidth = "15";
};
})
);
},
{
closed = 0;
nodes = (
(176,58,l,{
"Letterink-NibData" = {
AngleInDegrees = "8.408529197367898e-07";
MainAxisWidth = "150";
MinorAxisWidth = "15";
ValidForParentMainAxisWidth = "30";
ValidForParentMinorAxisWidth = "15";
};
}),
(121,214,o),
(166,667,o),
(68,637,c,{
"Letterink-NibData" = {
MainAxisWidth = "140";
MinorAxisWidth = "15";
ValidForParentMainAxisWidth = "30";
ValidForParentMinorAxisWidth = "15";
};
})
);
},
{
closed = 0;
nodes = (
(681,616,l,{
"Letterink-NibData" = {
AngleInDegrees = "25";
MainAxisWidth = "150";
MinorAxisWidth = "15";
ValidForParentMainAxisWidth = "30";
ValidForParentMinorAxisWidth = "15";
};
}),
(643,580,o),
(555,576,o),
(525,616,c,{
"Letterink-NibData" = {
AngleInDegrees = "25";
MainAxisWidth = "150";
MinorAxisWidth = "15";
ValidForParentMainAxisWidth = "30";
ValidForParentMinorAxisWidth = "15";
};
})
);
}
);
width = 687;
}
);
unicode = 87;
},
{
glyphname = X;
lastChange = "2023-11-01 22:52:58 +0000";
layers = (
{
layerId = m01;
shapes = (
{
closed = 0;
nodes = (
(458,580,l,{
"Letterink-NibData" = {
AngleInDegrees = -30;
MainAxisWidth = 70;
MinorAxisWidth = 15;
ValidForParentMainAxisWidth = 30;
ValidForParentMinorAxisWidth = 15;
};
}),
(439,552,o),
(188,138,o),
(188,138,cs,{
"Letterink-NibData" = {
AngleInDegrees = -30;
MainAxisWidth = 70;
MinorAxisWidth = 15;
ValidForParentMainAxisWidth = 30;
ValidForParentMinorAxisWidth = 15;
};
})
);
},
{
closed = 0;
nodes = (
(468,71,l,{
"Letterink-NibData" = {
AngleInDegrees = 7;
MainAxisWidth = 150;
MinorAxisWidth = 15;
ValidForParentMainAxisWidth = 30;
ValidForParentMinorAxisWidth = 15;
};
}),
(397,59,o),
(226,644,o),
(154,627,c,{
"Letterink-NibData" = {
AngleInDegrees = 7;
MainAxisWidth = 150;
MinorAxisWidth = 15;
ValidForParentMainAxisWidth = 30;
ValidForParentMinorAxisWidth = 15;
};
})
);
},
{
closed = 0;
nodes = (
(189,55,l,{
"Letterink-NibData" = {
AngleInDegrees = 7;
MainAxisWidth = 150;
MinorAxisWidth = 15;
ValidForParentMainAxisWidth = 30;
ValidForParentMinorAxisWidth = 15;
};
}),
(191,98,o),
(128,171,o),
(98,179,c,{
"Letterink-NibData" = {
AngleInDegrees = 7;
MainAxisWidth = 150;
MinorAxisWidth = 15;
ValidForParentMainAxisWidth = 30;
ValidForParentMinorAxisWidth = 15;
};
})
);
},
{
closed = 0;
nodes = (
(535,525,l,{
"Letterink-NibData" = {
AngleInDegrees = 7;
MainAxisWidth = 150;
MinorAxisWidth = 15;
ValidForParentMainAxisWidth = 30;
ValidForParentMinorAxisWidth = 15;
};
}),
(505,533,o),
(442,606,o),
(444,649,c,{
"Letterink-NibData" = {
AngleInDegrees = 7;
MainAxisWidth = 150;
MinorAxisWidth = 15;
ValidForParentMainAxisWidth = 30;
ValidForParentMinorAxisWidth = 15;
};
})
);
}
);
width = 609;
}
);
unicode = 88;
},
{
glyphname = Y;
lastChange = "2023-11-01 22:54:46 +0000";
layers = (
{
layerId = m01;
shapes = (
{
closed = 0;
nodes = (
(489,605,l,{
"Letterink-NibData" = {
MainAxisWidth = 83;
MinorAxisWidth = 52;
ValidForParentMainAxisWidth = 30;
ValidForParentMinorAxisWidth = 15;
};
}),
(484,589,o),
(241,112,o),
(241,112,cs,{
"Letterink-NibData" = {
MainAxisWidth = 83;
MinorAxisWidth = 52;
ValidForParentMainAxisWidth = 30;
ValidForParentMinorAxisWidth = 15;
};
})
);
},
{
closed = 0;
nodes = (
(567,629,l,{
"Letterink-NibData" = {
AngleInDegrees = 25;
MainAxisWidth = 150;
MinorAxisWidth = 15;
ValidForParentMainAxisWidth = 30;
ValidForParentMinorAxisWidth = 15;
};
}),
(528,593,o),
(446,589,o),
(415,629,c,{
"Letterink-NibData" = {
AngleInDegrees = 25;
MainAxisWidth = 150;
MinorAxisWidth = 15;
ValidForParentMainAxisWidth = 30;
ValidForParentMinorAxisWidth = 15;
};
})
);
},
{
closed = 0;
nodes = (
(314,372,l,{
"Letterink-NibData" = {
MainAxisWidth = 150;
MinorAxisWidth = 15;
ValidForParentMainAxisWidth = 30;
ValidForParentMinorAxisWidth = 15;
};
}),
(230,333,o),
(178,672,o),
(103,646,c,{
"Letterink-NibData" = {
MainAxisWidth = 150;
MinorAxisWidth = 15;
ValidForParentMainAxisWidth = 30;
ValidForParentMinorAxisWidth = 15;
};
})
);
},
{
closed = 0;
nodes = (
(152,84,l,{
"Letterink-NibData" = {
AngleInDegrees = 25;
MainAxisWidth = 150;
MinorAxisWidth = 15;
ValidForParentMainAxisWidth = 30;
ValidForParentMinorAxisWidth = 15;
};
}),
(191,120,o),
(273,124,o),
(304,84,c,{
"Letterink-NibData" = {
AngleInDegrees = 25;
MainAxisWidth = 150;
MinorAxisWidth = 15;
ValidForParentMainAxisWidth = 30;
ValidForParentMinorAxisWidth = 15;
};
})
);
}
);
width = 600;
}
);
unicode = 89;
},
{
glyphname = Z;
lastChange = "2023-11-01 22:56:31 +0000";
layers = (
{
layerId = m01;
shapes = (
{
closed = 0;
nodes = (
(46,83,l,{
"Letterink-NibData" = {
AngleInDegrees = 22;
MainAxisWidth = 150;
MinorAxisWidth = 37;
ValidForParentMainAxisWidth = 30;
ValidForParentMinorAxisWidth = 15;
};
}),
(143,166,o),
(281,33,o),
(373,110,c,{
"Letterink-NibData" = {
AngleInDegrees = 29;
MainAxisWidth = 150;
MinorAxisWidth = 15;
ValidForParentMainAxisWidth = 30;
ValidForParentMinorAxisWidth = 15;
};
})
);
},
{
closed = 0;
nodes = (
(98,605,l,{
"Letterink-NibData" = {
AngleInDegrees = 25;
MainAxisWidth = 150;
MinorAxisWidth = 15;
ValidForParentMainAxisWidth = 30;
ValidForParentMinorAxisWidth = 15;
};
}),
(211,648,o),
(311,592,o),
(426,625,c,{
"Letterink-NibData" = {
AngleInDegrees = 25;
MainAxisWidth = 150;
MinorAxisWidth = 15;
ValidForParentMainAxisWidth = 30;
ValidForParentMinorAxisWidth = 15;
};
})
);
},
{
closed = 0;
nodes = (
(373,575,l,{
"Letterink-NibData" = {
AngleInDegrees = -34;
MainAxisWidth = 70;
MinorAxisWidth = 15;
ValidForParentMainAxisWidth = 30;
ValidForParentMinorAxisWidth = 15;
};
}),
(314,430,o),
(127,215,o),
(93,107,cs,{
"Letterink-NibData" = {
AngleInDegrees = -34;
MainAxisWidth = 70;
MinorAxisWidth = 15;
ValidForParentMainAxisWidth = 30;
ValidForParentMinorAxisWidth = 15;
};
})
);
},
{
closed = 0;
nodes = (
(129,376,l,{
"Letterink-NibData" = {
AngleInDegrees = "25";
MainAxisWidth = "150";
MinorAxisWidth = "15";
ValidForParentMainAxisWidth = "30";
ValidForParentMinorAxisWidth = "15";
};
}),
(174,389,o),
(287,328,o),
(338,336,c,{
"Letterink-NibData" = {
AngleInDegrees = "25";
MainAxisWidth = "150";
MinorAxisWidth = "15";
ValidForParentMainAxisWidth = "30";
ValidForParentMinorAxisWidth = "15";
};
})
);
}
);
width = 462;
}
);
unicode = 90;
},
{
glyphname = a;
lastChange = "2023-11-01 22:44:45 +0000";
layers = (
{
layerId = m01;
shapes = (
{
closed = 0;
nodes = (
(75,39,l,{
"Letterink-NibData" = {
MainAxisWidth = "70";
MinorAxisWidth = "35";
ValidForParentMainAxisWidth = "30";
ValidForParentMinorAxisWidth = "15";
};
}),
(89,173,o),
(113,341,o),
(121,378,cs,{
"Letterink-NibData" = {
AngleInDegrees = "38.72226";
MainAxisWidth = "50";
MinorAxisWidth = "65";
ValidForParentMainAxisWidth = "30";
ValidForParentMinorAxisWidth = "15";
};
}),
(141,481,o),
(176,623,o),
(256,637,cs,{
"Letterink-NibData" = {
AngleInDegrees = "21";
MainAxisWidth = "135";
MinorAxisWidth = "45";
ValidForParentMainAxisWidth = "30";
ValidForParentMinorAxisWidth = "15";
};
}),
(326,650,o),
(366,553,o),
(353,455,cs,{
"Letterink-NibData" = {
AngleInDegrees = "-6";
MainAxisWidth = "150";
MinorAxisWidth = "45";
ValidForParentMainAxisWidth = "30";
ValidForParentMinorAxisWidth = "15";
};
}),
(320,159,ls,{
"Letterink-NibData" = {
AngleInDegrees = "-6";
MainAxisWidth = "150";
MinorAxisWidth = "45";
ValidForParentMainAxisWidth = "30";
ValidForParentMinorAxisWidth = "15";
};
}),
(313,101,o),
(318,72,o),
(348,65,c,{
"Letterink-NibData" = {
MainAxisWidth = "150";
MinorAxisWidth = "15";
ValidForParentMainAxisWidth = "30";
ValidForParentMinorAxisWidth = "15";
};
})
);
},
{
closed = 0;
nodes = (
(40,340,l,{
"Letterink-NibData" = {
AngleInDegrees = "25";
MainAxisWidth = "150";
MinorAxisWidth = "15";
ValidForParentMainAxisWidth = "30";
ValidForParentMinorAxisWidth = "15";
};
}),
(453,341,l,{
"Letterink-NibData" = {
AngleInDegrees = "25";
MainAxisWidth = "150";
MinorAxisWidth = "15";
ValidForParentMainAxisWidth = "30";
ValidForParentMinorAxisWidth = "15";
};
})
);
}
);
width = 493;
}
);
unicode = 97;
},
{
glyphname = b;
lastChange = "2023-11-01 22:45:37 +0000";
layers = (
{
layerId = m01;
shapes = (
{
closed = 0;
nodes = (
(67,231,l,{
"Letterink-NibData" = {
AngleInDegrees = "40";
MainAxisWidth = "123";
MinorAxisWidth = "15";
ValidForParentMainAxisWidth = "30";
ValidForParentMinorAxisWidth = "15";
};
}),
(117,440,o),
(510,437,o),
(417,191,c,{
"Letterink-NibData" = {
AngleInDegrees = "7";
MainAxisWidth = "150";
MinorAxisWidth = "15";
ValidForParentMainAxisWidth = "30";
ValidForParentMinorAxisWidth = "15";
};
})
);
},
{
closed = 0;
nodes = (
(228,388,l,{
"Letterink-NibData" = {
AngleInDegrees = "1";
MainAxisWidth = "130";
MinorAxisWidth = "48";
ValidForParentMainAxisWidth = "30";
ValidForParentMinorAxisWidth = "15";
};
}),
(577,644,o),
(193,750,o),
(102,464,c,{
"Letterink-NibData" = {
AngleInDegrees = "26";
MainAxisWidth = "150";
MinorAxisWidth = "66";
ValidForParentMainAxisWidth = "30";
ValidForParentMinorAxisWidth = "15";
};
})
);
},
{
closed = 0;
nodes = (
(102,459,l,{
"Letterink-NibData" = {
MainAxisWidth = "50";
MinorAxisWidth = "65";
ValidForParentMainAxisWidth = "30";
ValidForParentMinorAxisWidth = "15";
};
}),
(79,375,o),
(72,216,o),
(72,149,c,{
"Letterink-NibData" = {
AngleInDegrees = "78.5";
MainAxisWidth = "50";
MinorAxisWidth = "73.30992000000001";
ValidForParentMainAxisWidth = "30";
ValidForParentMinorAxisWidth = "15";
};
})
);
},
{
closed = 0;
nodes = (
(452,247,l,{
"Letterink-NibData" = {
AngleInDegrees = "26";
MainAxisWidth = "130";
MinorAxisWidth = "15";
ValidForParentMainAxisWidth = "30";
ValidForParentMinorAxisWidth = "15";
};
}),
(373,-37,o),
(5,58,o),
(91,249,c,{
"Letterink-NibData" = {
AngleInDegrees = "7";
MainAxisWidth = "150";
MinorAxisWidth = "15";
ValidForParentMainAxisWidth = "30";
ValidForParentMinorAxisWidth = "15";
};
})
);
}
);
width = 510;
}
);
unicode = 98;
},
{
glyphname = c;
lastChange = "2023-11-01 23:21:29 +0000";
layers = (
{
layerId = m01;
shapes = (
{
closed = 0;
nodes = (
(380,538,l,{
"Letterink-NibData" = {
AngleInDegrees = 7;
MainAxisWidth = 150;
MinorAxisWidth = 15;
ValidForParentMainAxisWidth = 30;
ValidForParentMinorAxisWidth = 15;
};
}),
(362,611,o),
(269,670,o),
(176,548,cs,{
"Letterink-NibData" = {
AngleInDegrees = 13;
MainAxisWidth = 150;
MinorAxisWidth = 51;
ValidForParentMainAxisWidth = 30;
ValidForParentMinorAxisWidth = 15;
};
}),
(-39,267,o),
(147,-77,o),
(345,124,c,{
"Letterink-NibData" = {
AngleInDegrees = 7;
MainAxisWidth = 174;
MinorAxisWidth = 41;
ValidForParentMainAxisWidth = 30;
ValidForParentMinorAxisWidth = 15;
};
})
);
}
);
width = 448;
}
);
unicode = 99;
},
{
glyphname = d;
lastChange = "2023-11-01 22:46:49 +0000";
layers = (
{
layerId = m01;
shapes = (
{
closed = 0;
nodes = (
(91,643,l,{
"Letterink-NibData" = {
AngleInDegrees = 25;
MainAxisWidth = 150;
MinorAxisWidth = 15;
ValidForParentMainAxisWidth = 30;
ValidForParentMinorAxisWidth = 15;
};
}),
(368,429,o),
(481,267,o),
(385,65,c,{
"Letterink-NibData" = {
MainAxisWidth = 150;
MinorAxisWidth = 15;
ValidForParentMainAxisWidth = 30;
ValidForParentMinorAxisWidth = 15;
};
})
);
},
{
closed = 0;
nodes = (
(139,558,l,{
"Letterink-NibData" = {
AngleInDegrees = -25;
MainAxisWidth = 50;
MinorAxisWidth = 15;
ValidForParentMainAxisWidth = 30;
ValidForParentMinorAxisWidth = 15;
};
}),
(75,99,l,{
"Letterink-NibData" = {
AngleInDegrees = -25;
MainAxisWidth = 50;
MinorAxisWidth = 15;
ValidForParentMainAxisWidth = 30;
ValidForParentMinorAxisWidth = 15;
};
})
);
},
{
closed = 0;
nodes = (
(58,123,l,{
"Letterink-NibData" = {
AngleInDegrees = 25;
MainAxisWidth = 150;
MinorAxisWidth = 15;
ValidForParentMainAxisWidth = 30;
ValidForParentMinorAxisWidth = 15;
};
}),
(132,66,o),
(267,59,o),
(353,85,c,{
"Letterink-NibData" = {
AngleInDegrees = 26;
MainAxisWidth = 150;
MinorAxisWidth = 15;
ValidForParentMainAxisWidth = 30;
ValidForParentMinorAxisWidth = 15;
};
})
);
}
);
width = 492;
}
);
unicode = 100;
},
{
glyphname = e;
lastChange = "2023-11-01 22:21:25 +0000";
layers = (
{
layerId = m01;
shapes = (
{
closed = 0;
nodes = (
(367,538,l,{
"Letterink-NibData" = {
MainAxisWidth = 150;
MinorAxisWidth = 15;
ValidForParentMainAxisWidth = 30;
ValidForParentMinorAxisWidth = 15;
};
}),
(330,637,o),
(275,645,o),
(242,629,cs,{
"Letterink-NibData" = {
AngleInDegrees = 15.43264;
MainAxisWidth = 146.31428;
MinorAxisWidth = 47;
ValidForParentMainAxisWidth = 30;
ValidForParentMinorAxisWidth = 15;
};
}),
(99,561,o),
(109,266,o),
(75,92,c,{
"Letterink-NibData" = {
AngleInDegrees = 22;
MainAxisWidth = 162.60378;
MinorAxisWidth = 37;
ValidForParentMainAxisWidth = 30;
ValidForParentMinorAxisWidth = 15;
};
}),
(120,108,o),
(154,111,o),
(201,103,cs,{
"Letterink-NibData" = {
AngleInDegrees = 25;
MainAxisWidth = 150;
MinorAxisWidth = 15;
ValidForParentMainAxisWidth = 30;
ValidForParentMinorAxisWidth = 15;
};
}),
(259,93,o),
(349,74,o),
(393,110,c,{
"Letterink-NibData" = {
AngleInDegrees = 25;
MainAxisWidth = 150;
MinorAxisWidth = 15;
ValidForParentMainAxisWidth = 30;
ValidForParentMinorAxisWidth = 15;
};
})
);
},
{
closed = 0;
nodes = (
(54,353,l,{
"Letterink-NibData" = {
AngleInDegrees = 25;
MainAxisWidth = 150;
MinorAxisWidth = 15;
ValidForParentMainAxisWidth = 30;
ValidForParentMinorAxisWidth = 15;
};
}),
(377,354,l,{
"Letterink-NibData" = {
AngleInDegrees = 25;
MainAxisWidth = 150;
MinorAxisWidth = 15;
ValidForParentMainAxisWidth = 30;
ValidForParentMinorAxisWidth = 15;
};
})
);
}
);
width = 451;
}
);
unicode = 101;
},
{
glyphname = f;
lastChange = "2023-11-01 22:48:00 +0000";
layers = (
{
layerId = m01;
shapes = (
{
closed = 0;
nodes = (
(409,627,l,{
"Letterink-NibData" = {
AngleInDegrees = "25";
MainAxisWidth = "150";
MinorAxisWidth = "15";
ValidForParentMainAxisWidth = "30";
ValidForParentMinorAxisWidth = "15";
};
}),
(373,580,o),
(311,574,o),
(263,574,cs,{
"Letterink-NibData" = {
AngleInDegrees = "25";
MainAxisWidth = "150";
MinorAxisWidth = "15";
ValidForParentMainAxisWidth = "30";
ValidForParentMinorAxisWidth = "15";
};
}),
(207,574,o),
(142,596,o),
(106,629,c,{
"Letterink-NibData" = {
AngleInDegrees = "22";
MainAxisWidth = "150";
MinorAxisWidth = "37";
ValidForParentMainAxisWidth = "30";
ValidForParentMinorAxisWidth = "15";
};
}),
(50,35,l,{
"Letterink-NibData" = {
MainAxisWidth = "70";
MinorAxisWidth = "35";
ValidForParentMainAxisWidth = "30";
ValidForParentMinorAxisWidth = "15";
};
})
);
},
{
closed = 0;
nodes = (
(332,313,l,{
"Letterink-NibData" = {
AngleInDegrees = "29";
MainAxisWidth = "150";
MinorAxisWidth = "15";
ValidForParentMainAxisWidth = "30";
ValidForParentMinorAxisWidth = "15";
};
}),
(37,315,l,{
"Letterink-NibData" = {
AngleInDegrees = "29";
MainAxisWidth = "150";
MinorAxisWidth = "15";
ValidForParentMainAxisWidth = "30";
ValidForParentMinorAxisWidth = "15";
};
})
);
}
);
width = 451;
}
);
unicode = 102;
},
{
glyphname = g;
lastChange = "2023-11-01 23:21:43 +0000";
layers = (
{
layerId = m01;
shapes = (
{
closed = 0;
nodes = (
(307,328,l,{
"Letterink-NibData" = {
AngleInDegrees = 6;
MainAxisWidth = 150;
MinorAxisWidth = 15;
ValidForParentMainAxisWidth = 30;
ValidForParentMinorAxisWidth = 15;
};
}),
(355,366,o),
(432,347,o),
(432,263,c,{
"Letterink-NibData" = {
AngleInDegrees = -6;
MainAxisWidth = 150;
MinorAxisWidth = 15;
ValidForParentMainAxisWidth = 30;
ValidForParentMinorAxisWidth = 15;
};
}),
(417,139,ls,{
"Letterink-NibData" = {
AngleInDegrees = -6;
MainAxisWidth = 150;
MinorAxisWidth = 15;
ValidForParentMainAxisWidth = 30;
ValidForParentMinorAxisWidth = 15;
};
}),
(409,71,o),
(427,52,o),
(434,49,c,{
"Letterink-NibData" = {
MainAxisWidth = 150;
MinorAxisWidth = 15;
ValidForParentMainAxisWidth = 30;
ValidForParentMinorAxisWidth = 15;
};
})
);
},
{
closed = 0;
nodes = (
(434,563,l,{
"Letterink-NibData" = {
MainAxisWidth = 150;
MinorAxisWidth = 15;
ValidForParentMainAxisWidth = 30;
ValidForParentMinorAxisWidth = 15;
};
}),
(336,696,o),
(255,643,o),
(192,563,c,{
"Letterink-NibData" = {
AngleInDegrees = 12;
MainAxisWidth = 150;
MinorAxisWidth = 45;
ValidForParentMainAxisWidth = 30;
ValidForParentMinorAxisWidth = 15;
};
}),
(31,321,o),
(106,-79,o),
(300,102,cs,{
"Letterink-NibData" = {
AngleInDegrees = 12;
MainAxisWidth = 150;
MinorAxisWidth = 45;
ValidForParentMainAxisWidth = 30;
ValidForParentMinorAxisWidth = 15;
};
}),
(316,117,o),
(399,261,o),
(416,312,c,{
"Letterink-NibData" = {
MainAxisWidth = 60;
MinorAxisWidth = 33;
ValidForParentMainAxisWidth = 30;
ValidForParentMinorAxisWidth = 15;
};
})
);
}
);
width = 520;
}
);
unicode = 103;
},
{
glyphname = h;
lastChange = "2023-11-01 22:48:22 +0000";
layers = (
{
layerId = m01;
shapes = (
{
closed = 0;
nodes = (
(54,352,l,{
"Letterink-NibData" = {
AngleInDegrees = "25";
MainAxisWidth = "150";
MinorAxisWidth = "15";
ValidForParentMainAxisWidth = "30";
ValidForParentMinorAxisWidth = "15";
};
}),
(487,353,l,{
"Letterink-NibData" = {
AngleInDegrees = "25";
MainAxisWidth = "150";
MinorAxisWidth = "15";
ValidForParentMainAxisWidth = "30";
ValidForParentMinorAxisWidth = "15";
};
})
);
},
{
closed = 0;
nodes = (
(130,646,l,{
"Letterink-NibData" = {
AngleInDegrees = "-1";
MainAxisWidth = "150";
MinorAxisWidth = "15";
ValidForParentMainAxisWidth = "30";
ValidForParentMinorAxisWidth = "15";
};
}),
(148,613,o),
(154,605,o),
(149,554,c,{
"Letterink-NibData" = {
AngleInDegrees = "-6";
MainAxisWidth = "150";
MinorAxisWidth = "15";
ValidForParentMainAxisWidth = "30";
ValidForParentMinorAxisWidth = "15";
};
}),
(120,160,ls,{
"Letterink-NibData" = {
AngleInDegrees = "-6";
MainAxisWidth = "150";
MinorAxisWidth = "15";
ValidForParentMainAxisWidth = "30";
ValidForParentMinorAxisWidth = "15";
};
}),
(115,96,o),
(124,82,o),
(150,64,c,{
"Letterink-NibData" = {
MainAxisWidth = "150";
MinorAxisWidth = "15";
ValidForParentMainAxisWidth = "30";
ValidForParentMinorAxisWidth = "15";
};
})
);
},
{
closed = 0;
nodes = (
(398,646,l,{
"Letterink-NibData" = {
AngleInDegrees = "-1";
MainAxisWidth = "150";
MinorAxisWidth = "15";
ValidForParentMainAxisWidth = "30";
ValidForParentMinorAxisWidth = "15";
};
}),
(416,613,o),
(421,605,o),
(417,554,cs,{
"Letterink-NibData" = {
AngleInDegrees = "-6";
MainAxisWidth = "150";
MinorAxisWidth = "15";
ValidForParentMainAxisWidth = "30";
ValidForParentMinorAxisWidth = "15";
};
}),
(388,160,ls,{
"Letterink-NibData" = {
AngleInDegrees = "-6";
MainAxisWidth = "150";
MinorAxisWidth = "15";
ValidForParentMainAxisWidth = "30";
ValidForParentMinorAxisWidth = "15";
};
}),
(383,96,o),
(392,82,o),
(418,64,c,{
"Letterink-NibData" = {
MainAxisWidth = "150";
MinorAxisWidth = "15";
ValidForParentMainAxisWidth = "30";
ValidForParentMinorAxisWidth = "15";
};
})
);
}
);
width = 542;
}
);
unicode = 104;
},
{
glyphname = i;
lastChange = "2023-10-24 11:11:11 +0000";
layers = (
{
layerId = m01;
shapes = (
{
closed = 0;
nodes = (
(107,646,l,{
"Letterink-NibData" = {
AngleInDegrees = "-1";
MainAxisWidth = "150";
MinorAxisWidth = "15";
ValidForParentMainAxisWidth = "30";
ValidForParentMinorAxisWidth = "15";
};
}),
(125,613,o),
(131,605,o),
(126,544,c,{
"Letterink-NibData" = {
AngleInDegrees = "-6";
MainAxisWidth = "150";
MinorAxisWidth = "15";
ValidForParentMainAxisWidth = "30";
ValidForParentMinorAxisWidth = "15";
};
}),
(97,160,ls,{
"Letterink-NibData" = {
AngleInDegrees = "-6";
MainAxisWidth = "150";
MinorAxisWidth = "15";
ValidForParentMainAxisWidth = "30";
ValidForParentMinorAxisWidth = "15";
};
}),
(92,96,o),
(101,82,o),
(127,64,c,{
"Letterink-NibData" = {
MainAxisWidth = "150";
MinorAxisWidth = "15";
ValidForParentMainAxisWidth = "30";
ValidForParentMinorAxisWidth = "15";
};
})
);
}
);
width = 223;
}
);
unicode = 105;
},
{
glyphname = j;
lastChange = "2023-11-01 23:24:07 +0000";
layers = (
{
layerId = m01;
shapes = (
{
closed = 0;
nodes = (
(119,205,l,{
"Letterink-NibData" = {
AngleInDegrees = -1;
MainAxisWidth = 150;
MinorAxisWidth = 15;
ValidForParentMainAxisWidth = 30;
ValidForParentMinorAxisWidth = 15;
};
}),
(57,80,o),
(208,-14,o),
(312,119,cs,{
"Letterink-NibData" = {
AngleInDegrees = 17;
MainAxisWidth = 118.15528;
MinorAxisWidth = 30;
ValidForParentMainAxisWidth = 30;
ValidForParentMinorAxisWidth = 15;
};
})
);
},
{
closed = 0;
nodes = (
(405,636,l,{
"Letterink-NibData" = {
AngleInDegrees = -1;
MainAxisWidth = 150;
MinorAxisWidth = 15;
ValidForParentMainAxisWidth = 30;
ValidForParentMinorAxisWidth = 15;
};
}),
(397,618,o),
(392,608,o),
(386,547,c,{
"Letterink-NibData" = {
AngleInDegrees = -6;
MainAxisWidth = 150;
MinorAxisWidth = 15;
ValidForParentMainAxisWidth = 30;
ValidForParentMinorAxisWidth = 15;
};
}),
(358,180,ls,{
"Letterink-NibData" = {
AngleInDegrees = -6;
MainAxisWidth = 150;
MinorAxisWidth = 15;
ValidForParentMainAxisWidth = 30;
ValidForParentMinorAxisWidth = 15;
};
}),
(353,116,o),
(319,91,o),
(290,73,c,{
"Letterink-NibData" = {
MainAxisWidth = 150;
MinorAxisWidth = 15;
ValidForParentMainAxisWidth = 30;
ValidForParentMinorAxisWidth = 15;
};
})
);
},
{
closed = 0;
nodes = (
(417,616,l,{
"Letterink-NibData" = {
AngleInDegrees = 17;
MainAxisWidth = 150;
MinorAxisWidth = 16;
ValidForParentMainAxisWidth = 30;
ValidForParentMinorAxisWidth = 15;
};
}),
(383,599,o),
(276,623,o),
(216,607,c,{
"Letterink-NibData" = {
AngleInDegrees = 13;
MainAxisWidth = 169;
MinorAxisWidth = 15;
ValidForParentMainAxisWidth = 30;
ValidForParentMinorAxisWidth = 15;
};
})
);
}
);
width = 499;
}
);
unicode = 106;
},
{
glyphname = k;
lastChange = "2023-11-01 22:23:40 +0000";
layers = (
{
background = {
shapes = (
{
ref = K;
}
);
};
layerId = m01;
shapes = (
{
closed = 0;
nodes = (
(169,326,l,{
"Letterink-NibData" = {
AngleInDegrees = 4;
MainAxisWidth = 150;
MinorAxisWidth = 15;
ValidForParentMainAxisWidth = 30;
ValidForParentMinorAxisWidth = 15;
};
}),
(361,427,o),
(436,174,o),
(414,69,c,{
"Letterink-NibData" = {
AngleInDegrees = 4;
MainAxisWidth = 150;
MinorAxisWidth = 14;
ValidForParentMainAxisWidth = 30;
ValidForParentMinorAxisWidth = 15;
};
})
);
},
{
closed = 0;
nodes = (
(82,644,l,{
"Letterink-NibData" = {
MainAxisWidth = 155;
MinorAxisWidth = 15;
ValidForParentMainAxisWidth = 30;
ValidForParentMinorAxisWidth = 15;
};
}),
(90,638,o),
(113,614,o),
(108,552,cs,{
"Letterink-NibData" = {
AngleInDegrees = -6;
MainAxisWidth = 155;
MinorAxisWidth = 15;
ValidForParentMainAxisWidth = 30;
ValidForParentMinorAxisWidth = 15;
};
}),
(79,174,ls,{
"Letterink-NibData" = {
AngleInDegrees = -6;
MainAxisWidth = 155;
MinorAxisWidth = 15;
ValidForParentMainAxisWidth = 30;
ValidForParentMinorAxisWidth = 15;
};
}),
(74,109,o),
(79,76,o),
(109,76,c,{
"Letterink-NibData" = {
AngleInDegrees = 4.06206;
MainAxisWidth = 169.64366;
MinorAxisWidth = 21;
ValidForParentMainAxisWidth = 30;
ValidForParentMinorAxisWidth = 15;
};
})
);
},
{
closed = 0;
nodes = (
(440,676,l,{
"Letterink-NibData" = {
AngleInDegrees = -35;
MainAxisWidth = 80;
MinorAxisWidth = 15;
ValidForParentMainAxisWidth = 30;
ValidForParentMinorAxisWidth = 15;
};
}),
(425,659,o),
(144,305,o),
(144,305,c,{
"Letterink-NibData" = {
AngleInDegrees = -12;
MainAxisWidth = 70;
MinorAxisWidth = 47;
ValidForParentMainAxisWidth = 30;
ValidForParentMinorAxisWidth = 15;
};
})
);
}
);
width = 502;
}
);
unicode = 107;
},
{
glyphname = l;
lastChange = "2023-11-01 23:25:37 +0000";
layers = (
{
layerId = m01;
shapes = (
{
closed = 0;
nodes = (
(100,644,l,{
"Letterink-NibData" = {
MainAxisWidth = 155;
MinorAxisWidth = 15;
ValidForParentMainAxisWidth = 30;
ValidForParentMinorAxisWidth = 15;
};
}),
(108,638,o),
(131,614,o),
(126,552,cs,{
"Letterink-NibData" = {
AngleInDegrees = -6;
MainAxisWidth = 155;
MinorAxisWidth = 15;
ValidForParentMainAxisWidth = 30;
ValidForParentMinorAxisWidth = 15;
};
}),
(97,174,ls,{
"Letterink-NibData" = {
AngleInDegrees = -6;
MainAxisWidth = 155;
MinorAxisWidth = 15;
ValidForParentMainAxisWidth = 30;
ValidForParentMinorAxisWidth = 15;
};
}),
(92,109,o),
(97,76,o),
(127,76,c,{
"Letterink-NibData" = {
AngleInDegrees = 4.06206;
MainAxisWidth = 169.64366;
MinorAxisWidth = 21;
ValidForParentMainAxisWidth = 30;
ValidForParentMinorAxisWidth = 15;
};
})
);
},
{
closed = 0;
nodes = (
(138,93,l,{
"Letterink-NibData" = {
AngleInDegrees = 11;
MainAxisWidth = 133;
MinorAxisWidth = 14;
ValidForParentMainAxisWidth = 30;
ValidForParentMinorAxisWidth = 15;
};
}),
(222,160,o),
(319,108,o),
(333,74,c,{
"Letterink-NibData" = {
AngleInDegrees = 11;
MainAxisWidth = 150;
MinorAxisWidth = 15;
ValidForParentMainAxisWidth = 30;
ValidForParentMinorAxisWidth = 15;
};
})
);
}
);
width = 430;
}
);
unicode = 108;
},
{
glyphname = m;
lastChange = "2023-11-01 22:24:57 +0000";
layers = (
{
layerId = m01;
shapes = (
{
closed = 0;
nodes = (
(200,641,l,{
"Letterink-NibData" = {
MainAxisWidth = 150;
MinorAxisWidth = 15;
ValidForParentMainAxisWidth = 30;
ValidForParentMinorAxisWidth = 15;
};
}),
(257,601,o),
(315,244,o),
(325,66,c,{
"Letterink-NibData" = {
MainAxisWidth = 150;
MinorAxisWidth = 15;
ValidForParentMainAxisWidth = 30;
ValidForParentMinorAxisWidth = 15;
};
})
);
},
{
closed = 0;
nodes = (
(47,39,l,{
"Letterink-NibData" = {
MainAxisWidth = 68;
MinorAxisWidth = 35;
ValidForParentMainAxisWidth = 30;
ValidForParentMinorAxisWidth = 15;
};
}),
(162,289,o),
(162,586,o),
(162,586,c,{
"Letterink-NibData" = {
MainAxisWidth = 60;
MinorAxisWidth = 25;
ValidForParentMainAxisWidth = 30;
ValidForParentMinorAxisWidth = 15;
};
})
);
},
{
closed = 0;
nodes = (
(317,140,l,{
"Letterink-NibData" = {
MainAxisWidth = 103;
MinorAxisWidth = 25;
ValidForParentMainAxisWidth = 30;
ValidForParentMinorAxisWidth = 15;
};
}),
(424,357,o),
(481,593,o),
(481,593,c,{
"Letterink-NibData" = {
MainAxisWidth = 103;
MinorAxisWidth = 25;
ValidForParentMainAxisWidth = 30;
ValidForParentMinorAxisWidth = 15;
};
})
);
},
{
closed = 0;
nodes = (
(515,638,l,{
"Letterink-NibData" = {
MainAxisWidth = 150;
MinorAxisWidth = 15;
ValidForParentMainAxisWidth = 30;
ValidForParentMinorAxisWidth = 15;
};
}),
(553,638,o),
(515,175,o),
(567,63,c,{
"Letterink-NibData" = {
MainAxisWidth = 150;
MinorAxisWidth = 15;
ValidForParentMainAxisWidth = 30;
ValidForParentMinorAxisWidth = 15;
};
})
);
}
);
width = 650;
}
);
unicode = 109;
},
{
glyphname = n;
lastChange = "2023-11-01 22:49:27 +0000";
layers = (
{
layerId = m01;
shapes = (
{
closed = 0;
nodes = (
(108,648,l,{
"Letterink-NibData" = {
MainAxisWidth = "140";
MinorAxisWidth = "15";
ValidForParentMainAxisWidth = "30";
ValidForParentMinorAxisWidth = "15";
};
}),
(199,485,o),
(299,176,o),
(401,81,c,{
"Letterink-NibData" = {
MainAxisWidth = "140";
MinorAxisWidth = "15";
ValidForParentMainAxisWidth = "30";
ValidForParentMinorAxisWidth = "15";
};
})
);
},
{
closed = 0;
nodes = (
(60,40,l,{
"Letterink-NibData" = {
MainAxisWidth = "70";
MinorAxisWidth = "35";
ValidForParentMainAxisWidth = "30";
ValidForParentMinorAxisWidth = "15";
};
}),
(70,94,o),
(111,566,o),
(111,566,c,{
"Letterink-NibData" = {
MainAxisWidth = "70";
MinorAxisWidth = "35";
ValidForParentMainAxisWidth = "30";
ValidForParentMinorAxisWidth = "15";
};
})
);
},
{
closed = 0;
nodes = (
(407,649,l,{
"Letterink-NibData" = {
AngleInDegrees = "-1";
MainAxisWidth = "140";
MinorAxisWidth = "15";
ValidForParentMainAxisWidth = "30";
ValidForParentMinorAxisWidth = "15";
};
}),
(425,616,o),
(431,608,o),
(426,547,cs,{
"Letterink-NibData" = {
AngleInDegrees = "-6";
MainAxisWidth = "140";
MinorAxisWidth = "15";
ValidForParentMainAxisWidth = "30";
ValidForParentMinorAxisWidth = "15";
};
}),
(392,94,o),
(380,84,o),
(427,62,c,{
"Letterink-NibData" = {
MainAxisWidth = "140";
MinorAxisWidth = "15";
ValidForParentMainAxisWidth = "30";
ValidForParentMinorAxisWidth = "15";
};
})
);
}
);
width = 515;
}
);
unicode = 110;
},
{
glyphname = o;
lastChange = "2023-10-25 18:53:29 +0000";
layers = (
{
layerId = m01;
shapes = (
{
closed = 1;
nodes = (
(532,349,o),
(284,831,o),
(126,573,cs,{
"Letterink-NibData" = {
AngleInDegrees = "12";
MainAxisWidth = "150";
MinorAxisWidth = "45";
ValidForParentMainAxisWidth = "30";
ValidForParentMinorAxisWidth = "15";
};
}),
(-14,344,o),
(165,-68,o),
(310,96,cs,{
"Letterink-NibData" = {
AngleInDegrees = "12";
MainAxisWidth = "150";
MinorAxisWidth = "45";
ValidForParentMainAxisWidth = "30";
ValidForParentMinorAxisWidth = "15";
};
})
);
}
);
width = 479;
}
);
unicode = 111;
},
{
glyphname = p;
lastChange = "2023-11-01 23:25:55 +0000";
layers = (
{
layerId = m01;
shapes = (
{
closed = 0;
nodes = (
(108,277,l,{
"Letterink-NibData" = {
AngleInDegrees = "-6";
MainAxisWidth = "136";
MinorAxisWidth = "40";
ValidForParentMainAxisWidth = "30";
ValidForParentMinorAxisWidth = "15";
};
}),
(442,402,o),
(333,688,o),
(106,656,c,{
"Letterink-NibData" = {
AngleInDegrees = "-4";
MainAxisWidth = "150";
MinorAxisWidth = "15";
ValidForParentMainAxisWidth = "30";
ValidForParentMinorAxisWidth = "15";
};
}),
(77,160,ls,{
"Letterink-NibData" = {
AngleInDegrees = -6;
MainAxisWidth = 150;
MinorAxisWidth = 15;
ValidForParentMainAxisWidth = 30;
ValidForParentMinorAxisWidth = 15;
};
}),
(73,96,o),
(81,64,o),
(107,64,c,{
"Letterink-NibData" = {
MainAxisWidth = 150;
MinorAxisWidth = 15;
ValidForParentMainAxisWidth = 30;
ValidForParentMinorAxisWidth = 15;
};
})
);
}
);
width = 388;
}
);
unicode = 112;
},
{
glyphname = q;
lastChange = "2023-11-01 23:28:33 +0000";
layers = (
{
layerId = m01;
shapes = (
{
closed = 1;
nodes = (
(622,349,o),
(333,834,o),
(145,573,cs,{
"Letterink-NibData" = {
AngleInDegrees = 12;
MainAxisWidth = 150;
MinorAxisWidth = 45;
ValidForParentMainAxisWidth = 30;
ValidForParentMinorAxisWidth = 15;
};
}),
(-18,347,o),
(191,-68,o),
(361,96,cs,{
"Letterink-NibData" = {
AngleInDegrees = 12;
MainAxisWidth = 150;
MinorAxisWidth = 19;
ValidForParentMainAxisWidth = 30;
ValidForParentMinorAxisWidth = 15;
};
})
);
},
{
closed = 0;
nodes = (
(312,272,l,{
"Letterink-NibData" = {
AngleInDegrees = 8;
MainAxisWidth = 53;
MinorAxisWidth = 25;
ValidForParentMainAxisWidth = 30;
ValidForParentMinorAxisWidth = 15;
};
}),
(326,251,o),
(484,22,o),
(484,22,c,{
"Letterink-NibData" = {
AngleInDegrees = 8;
MainAxisWidth = 53;
MinorAxisWidth = 25;
ValidForParentMainAxisWidth = 30;
ValidForParentMinorAxisWidth = 15;
};
})
);
}
);
width = 600;
}
);
unicode = 113;
},
{
glyphname = r;
lastChange = "2023-11-01 22:50:10 +0000";
layers = (
{
layerId = m01;
shapes = (
{
closed = 0;
nodes = (
(96,297,l,{
"Letterink-NibData" = {
AngleInDegrees = "20";
MainAxisWidth = "130";
MinorAxisWidth = "15";
ValidForParentMainAxisWidth = "30";
ValidForParentMinorAxisWidth = "15";
};
}),
(299,416,o),
(455,301,o),
(378,67,c,{
"Letterink-NibData" = {
MainAxisWidth = "150";
MinorAxisWidth = "35";
ValidForParentMainAxisWidth = "30";
ValidForParentMinorAxisWidth = "15";
};
})
);
},
{
closed = 0;
nodes = (
(243,343,l,{
"Letterink-NibData" = {
AngleInDegrees = "1";
MainAxisWidth = "137";
MinorAxisWidth = "48";
ValidForParentMainAxisWidth = "30";
ValidForParentMinorAxisWidth = "15";
};
}),
(568,607,o),
(221,737,o),
(135,518,c,{
"Letterink-NibData" = {
AngleInDegrees = "26";
MainAxisWidth = "150";
MinorAxisWidth = "61";
ValidForParentMainAxisWidth = "30";
ValidForParentMinorAxisWidth = "15";
};
})
);
},
{
closed = 0;
nodes = (
(130,500,l,{
"Letterink-NibData" = {
MainAxisWidth = "50";
MinorAxisWidth = "58";
ValidForParentMainAxisWidth = "30";
ValidForParentMinorAxisWidth = "15";
};
}),
(103,416,o),
(77,93,o),
(73,37,c,{
"Letterink-NibData" = {
MainAxisWidth = "70";
MinorAxisWidth = "35";
ValidForParentMainAxisWidth = "30";
ValidForParentMinorAxisWidth = "15";
};
})
);
}
);
width = 520;
}
);
unicode = 114;
},
{
glyphname = s;
lastChange = "2023-10-24 11:13:52 +0000";
layers = (
{
layerId = m01;
shapes = (
{
closed = 0;
nodes = (
(47,163,l,{
"Letterink-NibData" = {
AngleInDegrees = "25";
MainAxisWidth = "150";
MinorAxisWidth = "15";
ValidForParentMainAxisWidth = "30";
ValidForParentMinorAxisWidth = "15";
};
}),
(87,83,o),
(238,15,o),
(311,119,cs,{
"Letterink-NibData" = {
AngleInDegrees = "17";
MainAxisWidth = "118.15528";
MinorAxisWidth = "38";
ValidForParentMainAxisWidth = "30";
ValidForParentMinorAxisWidth = "15";
};
}),
(404,251,o),
(364,268,o),
(230,355,cs,{
"Letterink-NibData" = {
AngleInDegrees = "1";
MainAxisWidth = "150";
MinorAxisWidth = "15";
ValidForParentMainAxisWidth = "30";
ValidForParentMinorAxisWidth = "15";
};
}),
(98,442,o),
(79,479,o),
(158,592,cs,{
"Letterink-NibData" = {
AngleInDegrees = "17";
MainAxisWidth = "118.15528";
MinorAxisWidth = "38";
ValidForParentMainAxisWidth = "30";
ValidForParentMinorAxisWidth = "15";
};
}),
(231,696,o),
(368,610,o),
(404,530,c,{
"Letterink-NibData" = {
AngleInDegrees = "25";
MainAxisWidth = "150";
MinorAxisWidth = "12.78352";
ValidForParentMainAxisWidth = "30";
ValidForParentMinorAxisWidth = "15";
};
})
);
}
);
width = 450;
}
);
unicode = 115;
},
{
glyphname = t;
lastChange = "2023-10-24 11:14:19 +0000";
layers = (
{
layerId = m01;
shapes = (
{
closed = 0;
nodes = (
(422,618,l,{
"Letterink-NibData" = {
AngleInDegrees = "22";
MainAxisWidth = "150";
MinorAxisWidth = "37";
ValidForParentMainAxisWidth = "30";
ValidForParentMinorAxisWidth = "15";
};
}),
(322,601,o),
(113,628,o),
(55,598,c,{
"Letterink-NibData" = {
AngleInDegrees = "29";
MainAxisWidth = "150";
MinorAxisWidth = "15";
ValidForParentMainAxisWidth = "30";
ValidForParentMinorAxisWidth = "15";
};
})
);
},
{
closed = 0;
nodes = (
(223,486,l,{
"Letterink-NibData" = {
AngleInDegrees = "-1";
MainAxisWidth = "155";
MinorAxisWidth = "15";
ValidForParentMainAxisWidth = "30";
ValidForParentMinorAxisWidth = "15";
};
}),
(237,453,o),
(175,140,o),
(207,63,c,{
"Letterink-NibData" = {
MainAxisWidth = "155";
MinorAxisWidth = "15";
ValidForParentMainAxisWidth = "30";
ValidForParentMinorAxisWidth = "15";
};
})
);
}
);
width = 490;
}
);
unicode = 116;
},
{
glyphname = u;
lastChange = "2023-11-01 23:33:30 +0000";
layers = (
{
layerId = m01;
shapes = (
{
closed = 0;
nodes = (
(98,636,l,{
"Letterink-NibData" = {
MainAxisWidth = "150";
MinorAxisWidth = "26";
ValidForParentMainAxisWidth = "30";
ValidForParentMinorAxisWidth = "15";
};
}),
(110,622,o),
(127,601,o),
(122,544,cs,{
"Letterink-NibData" = {
AngleInDegrees = "-6";
MainAxisWidth = "150";
MinorAxisWidth = "45";
ValidForParentMainAxisWidth = "30";
ValidForParentMinorAxisWidth = "15";
};
}),
(95,248,ls,{
"Letterink-NibData" = {
AngleInDegrees = "-6";
MainAxisWidth = "150";
MinorAxisWidth = "45";
ValidForParentMainAxisWidth = "30";
ValidForParentMinorAxisWidth = "15";
};
}),
(84,130,o),
(147,23,o),
(257,58,cs,{
"Letterink-NibData" = {
AngleInDegrees = "9";
MainAxisWidth = "120";
MinorAxisWidth = "57";
ValidForParentMainAxisWidth = "30";
ValidForParentMinorAxisWidth = "15";
};
}),
(307,74,o),
(381,155,o),
(401,253,cs,{
"Letterink-NibData" = {
MainAxisWidth = "50";
MinorAxisWidth = "65";
ValidForParentMainAxisWidth = "30";
ValidForParentMinorAxisWidth = "15";
};
}),
(419,343,o),
(430,667,o),
(430,667,c,{
"Letterink-NibData" = {
MainAxisWidth = "70";
MinorAxisWidth = "35";
ValidForParentMainAxisWidth = "30";
ValidForParentMinorAxisWidth = "15";
};
})
);
}
);
width = 483;
}
);
unicode = 117;
},
{
glyphname = v;
lastChange = "2023-11-01 23:33:47 +0000";
layers = (
{
layerId = m01;
shapes = (
{
closed = 0;
nodes = (
(431,675,l,{
"Letterink-NibData" = {
MainAxisWidth = 88;
MinorAxisWidth = 35;
ValidForParentMainAxisWidth = 30;
ValidForParentMinorAxisWidth = 15;
};
}),
(386,500,o),
(267,144,o),
(256,98,cs,{
"Letterink-NibData" = {
MainAxisWidth = 88;
MinorAxisWidth = 35;
ValidForParentMainAxisWidth = 30;
ValidForParentMinorAxisWidth = 15;
};
})
);
},
{
closed = 0;
nodes = (
(225,52,l,{
"Letterink-NibData" = {
MainAxisWidth = 150;
MinorAxisWidth = 39;
ValidForParentMainAxisWidth = 30;
ValidForParentMinorAxisWidth = 15;
};
}),
(204,69,o),
(183,86,o),
(169,177,cs,{
"Letterink-NibData" = {
AngleInDegrees = -8;
MainAxisWidth = 150;
MinorAxisWidth = 15;
ValidForParentMainAxisWidth = 30;
ValidForParentMinorAxisWidth = 15;
};
}),
(157,249,o),
(156,373,o),
(132,541,cs,{
"Letterink-NibData" = {
AngleInDegrees = -3;
MainAxisWidth = 150;
MinorAxisWidth = 15;
ValidForParentMainAxisWidth = 30;
ValidForParentMinorAxisWidth = 15;
};
}),
(122,608,o),
(104,646,o),
(84,651,c,{
"Letterink-NibData" = {
MainAxisWidth = 150;
MinorAxisWidth = 15;
ValidForParentMainAxisWidth = 30;
ValidForParentMinorAxisWidth = 15;
};
})
);
}
);
width = 490;
}
);
unicode = 118;
},
{
glyphname = w;
lastChange = "2023-11-01 23:32:13 +0000";
layers = (
{
layerId = m01;
shapes = (
{
closed = 0;
nodes = (
(405,54,l,{
"Letterink-NibData" = {
MainAxisWidth = 140;
MinorAxisWidth = 15;
ValidForParentMainAxisWidth = 30;
ValidForParentMinorAxisWidth = 15;
};
}),
(343,167,o),
(375,590,o),
(325,639,c,{
"Letterink-NibData" = {
MainAxisWidth = 140;
MinorAxisWidth = 15;
ValidForParentMainAxisWidth = 30;
ValidForParentMinorAxisWidth = 15;
};
})
);
},
{
closed = 0;
nodes = (
(628,660,l,{
"Letterink-NibData" = {
MainAxisWidth = 70;
MinorAxisWidth = 35;
ValidForParentMainAxisWidth = 30;
ValidForParentMinorAxisWidth = 15;
};
}),
(494,352,o),
(442,84,o),
(442,84,c,{
"Letterink-NibData" = {
MainAxisWidth = 86;
MinorAxisWidth = 9;
ValidForParentMainAxisWidth = 30;
ValidForParentMinorAxisWidth = 15;
};
})
);
},
{
closed = 0;
nodes = (
(176,54,l,{
"Letterink-NibData" = {
MainAxisWidth = 140;
MinorAxisWidth = 15;
ValidForParentMainAxisWidth = 30;
ValidForParentMinorAxisWidth = 15;
};
}),
(114,167,o),
(145,590,o),
(96,639,c,{
"Letterink-NibData" = {
MainAxisWidth = 140;
MinorAxisWidth = 15;
ValidForParentMainAxisWidth = 30;
ValidForParentMinorAxisWidth = 15;
};
})
);
},
{
closed = 0;
nodes = (
(370,585,l,{
"Letterink-NibData" = {
MainAxisWidth = 70;
MinorAxisWidth = 35;
ValidForParentMainAxisWidth = 30;
ValidForParentMinorAxisWidth = 15;
};
}),
(266,357,o),
(213,84,o),
(213,84,c,{
"Letterink-NibData" = {
MainAxisWidth = 70;
MinorAxisWidth = 10;
ValidForParentMainAxisWidth = 30;
ValidForParentMinorAxisWidth = 15;
};
})
);
}
);
width = 600;
}
);
unicode = 119;
},
{
glyphname = x;
lastChange = "2023-11-01 23:32:34 +0000";
layers = (
{
layerId = m01;
shapes = (
{
closed = 0;
nodes = (
(522,664,l,{
"Letterink-NibData" = {
AngleInDegrees = -12;
MainAxisWidth = 70;
MinorAxisWidth = 47;
ValidForParentMainAxisWidth = 30;
ValidForParentMinorAxisWidth = 15;
};
}),
(496,625,o),
(89,38,o),
(89,38,c,{
"Letterink-NibData" = {
AngleInDegrees = -12;
MainAxisWidth = 70;
MinorAxisWidth = 47;
ValidForParentMainAxisWidth = 30;
ValidForParentMinorAxisWidth = 15;
};
})
);
},
{
closed = 0;
nodes = (
(473,71,l,{
"Letterink-NibData" = {
AngleInDegrees = 7;
MainAxisWidth = 150;
MinorAxisWidth = 15;
ValidForParentMainAxisWidth = 30;
ValidForParentMinorAxisWidth = 15;
};
}),
(403,59,o),
(220,644,o),
(149,627,c,{
"Letterink-NibData" = {
AngleInDegrees = 7;
MainAxisWidth = 150;
MinorAxisWidth = 15;
ValidForParentMainAxisWidth = 30;
ValidForParentMinorAxisWidth = 15;
};
})
);
}
);
width = 609;
}
);
unicode = 120;
},
{
glyphname = y;
lastChange = "2023-11-01 23:34:28 +0000";
layers = (
{
layerId = m01;
shapes = (
{
closed = 0;
nodes = (
(516,658,l,{
"Letterink-NibData" = {
MainAxisWidth = 91;
MinorAxisWidth = 52;
ValidForParentMainAxisWidth = 30;
ValidForParentMinorAxisWidth = 15;
};
}),
(511,642,o),
(202,42,o),
(202,42,cs,{
"Letterink-NibData" = {
MainAxisWidth = 91;
MinorAxisWidth = 52;
ValidForParentMainAxisWidth = 30;
ValidForParentMinorAxisWidth = 15;
};
})
);
},
{
closed = 0;
nodes = (
(314,372,l,{
"Letterink-NibData" = {
MainAxisWidth = 150;
MinorAxisWidth = 15;
ValidForParentMainAxisWidth = 30;
ValidForParentMinorAxisWidth = 15;
};
}),
(230,333,o),
(178,672,o),
(103,646,c,{
"Letterink-NibData" = {
MainAxisWidth = 150;
MinorAxisWidth = 15;
ValidForParentMainAxisWidth = 30;
ValidForParentMinorAxisWidth = 15;
};
})
);
}
);
width = 600;
}
);
unicode = 121;
},
{
glyphname = z;
lastChange = "2023-11-01 23:34:40 +0000";
layers = (
{
layerId = m01;
shapes = (
{
closed = 0;
nodes = (
(106,83,l,{
"Letterink-NibData" = {
AngleInDegrees = 25;
MainAxisWidth = 150;
MinorAxisWidth = 37;
ValidForParentMainAxisWidth = 30;
ValidForParentMinorAxisWidth = 15;
};
}),
(203,166,o),
(360,140,o),
(433,85,c,{
"Letterink-NibData" = {
AngleInDegrees = 25;
MainAxisWidth = 150;
MinorAxisWidth = 15;
ValidForParentMainAxisWidth = 30;
ValidForParentMinorAxisWidth = 15;
};
})
);
},
{
closed = 0;
nodes = (
(178,625,l,{
"Letterink-NibData" = {
AngleInDegrees = 25;
MainAxisWidth = 150;
MinorAxisWidth = 15;
ValidForParentMainAxisWidth = 30;
ValidForParentMinorAxisWidth = 15;
};
}),
(225,567,o),
(408,558,o),
(486,625,c,{
"Letterink-NibData" = {
AngleInDegrees = 25;
MainAxisWidth = 150;
MinorAxisWidth = 15;
ValidForParentMainAxisWidth = 30;
ValidForParentMinorAxisWidth = 15;
};
})
);
},
{
closed = 0;
nodes = (
(439,575,l,{
"Letterink-NibData" = {
AngleInDegrees = -12;
MainAxisWidth = 70;
MinorAxisWidth = 47;
ValidForParentMainAxisWidth = 30;
ValidForParentMinorAxisWidth = 15;
};
}),
(375,430,o),
(175,215,o),
(138,107,cs,{
"Letterink-NibData" = {
AngleInDegrees = -12;
MainAxisWidth = 70;
MinorAxisWidth = 47;
ValidForParentMainAxisWidth = 30;
ValidForParentMinorAxisWidth = 15;
};
})
);
}
);
width = 600;
}
);
unicode = 122;
},
{
glyphname = period;
lastChange = "2023-11-01 23:43:29 +0000";
layers = (
{
layerId = m01;
shapes = (
{
closed = 0;
nodes = (
(248,86,l,{
"Letterink-NibData" = {
AngleInDegrees = "25";
MainAxisWidth = "150";
MinorAxisWidth = "15";
ValidForParentMainAxisWidth = "30";
ValidForParentMinorAxisWidth = "15";
};
}),
(265,96,o),
(321,77,o),
(350,86,c,{
"Letterink-NibData" = {
AngleInDegrees = "25";
MainAxisWidth = "150";
MinorAxisWidth = "15";
ValidForParentMainAxisWidth = "30";
ValidForParentMinorAxisWidth = "15";
};
})
);
}
);
width = 600;
}
);
unicode = 46;
},
{
glyphname = comma;
lastChange = "2023-11-01 23:40:13 +0000";
layers = (
{
layerId = m01;
shapes = (
{
closed = 0;
nodes = (
(255,81,l,{
"Letterink-NibData" = {
AngleInDegrees = 25;
MainAxisWidth = 150;
MinorAxisWidth = 15;
ValidForParentMainAxisWidth = 30;
ValidForParentMinorAxisWidth = 15;
};
}),
(312,81,o),
(331,0,o),
(317,-59,c,{
"Letterink-NibData" = {
AngleInDegrees = 10;
MainAxisWidth = 104;
MinorAxisWidth = 25;
ValidForParentMainAxisWidth = 30;
ValidForParentMinorAxisWidth = 15;
};
})
);
}
);
width = 600;
}
);
unicode = 44;
},
{
glyphname = semicolon;
lastChange = "2023-11-01 23:43:05 +0000";
layers = (
{
layerId = m01;
shapes = (
{
closed = 0;
nodes = (
(248,398,l,{
"Letterink-NibData" = {
AngleInDegrees = "25";
MainAxisWidth = "150";
MinorAxisWidth = "15";
ValidForParentMainAxisWidth = "30";
ValidForParentMinorAxisWidth = "15";
};
}),
(265,408,o),
(321,389,o),
(350,398,c,{
"Letterink-NibData" = {
AngleInDegrees = "25";
MainAxisWidth = "150";
MinorAxisWidth = "15";
ValidForParentMainAxisWidth = "30";
ValidForParentMinorAxisWidth = "15";
};
})
);
},
{
closed = 0;
nodes = (
(255,81,l,{
"Letterink-NibData" = {
AngleInDegrees = "25";
MainAxisWidth = "150";
MinorAxisWidth = "15";
ValidForParentMainAxisWidth = "30";
ValidForParentMinorAxisWidth = "15";
};
}),
(312,81,o),
(331,0,o),
(317,-59,c,{
"Letterink-NibData" = {
AngleInDegrees = "10";
MainAxisWidth = "104";
MinorAxisWidth = "25";
ValidForParentMainAxisWidth = "30";
ValidForParentMinorAxisWidth = "15";
};
})
);
}
);
width = 600;
}
);
unicode = 59;
},
{
glyphname = hyphen;
lastChange = "2023-11-01 23:44:46 +0000";
layers = (
{
layerId = m01;
shapes = (
{
closed = 0;
nodes = (
(378,299,l,{
"Letterink-NibData" = {
AngleInDegrees = "29";
MainAxisWidth = "150";
MinorAxisWidth = "15";
ValidForParentMainAxisWidth = "30";
ValidForParentMinorAxisWidth = "15";
};
}),
(334,260,o),
(132,332,o),
(75,277,c,{
"Letterink-NibData" = {
AngleInDegrees = "29";
MainAxisWidth = "150";
MinorAxisWidth = "15";
ValidForParentMainAxisWidth = "30";
ValidForParentMinorAxisWidth = "15";
};
})
);
}
